<?xml version="1.0" encoding="utf-8"?>
<!-- Generator: Adobe Illustrator 26.1.0, SVG Export Plug-In . SVG Version: 6.00 Build 0)  -->
<svg version="1.1" xmlns="http://www.w3.org/2000/svg" xmlns:xlink="http://www.w3.org/1999/xlink" x="0px" y="0px"
	 viewBox="0 0 1600 1200" enable-background="new 0 0 1600 1200" xml:space="preserve">
<g id="background" display="none">
	<radialGradient id="SVGID_1_" cx="800" cy="600" r="1000.8554" gradientUnits="userSpaceOnUse">
		<stop  offset="0" style="stop-color:#C97575"/>
		<stop  offset="1" style="stop-color:#003F69"/>
	</radialGradient>
	<rect display="inline" fill="url(#SVGID_1_)" width="1600" height="1200"/>
</g>
<g id="right-back-horn">
	<g>
		<path fill="#244E93" d="M515,504.7c-8.6,0-17.5-2.7-25.7-7.8c-7.4-4.6-14.2-10.9-19.6-18.4c-21.3-29.7-21.4-68-19.5-108
			c0.1-2.1,1.5-3.9,3.6-4.6c0.5-0.1,1-0.2,1.4-0.2c1.6,0,3.1,0.7,4,2.1c10.1,13.8,21.7,25.7,34.5,35.3c9.2,6.9,17.7,11.7,25.2,15.9
			c13.7,7.7,25.5,14.3,32.7,29.7c2,4.3,8,17.2,3,30.5c-2.9,7.6-8.7,14-17.4,19.1c-5.2,3.1-11,5.1-16.7,5.9
			C518.7,504.6,516.9,504.7,515,504.7C515,504.7,515,504.7,515,504.7z"/>
		<path d="M455.2,370.8c13.1,17.9,26.1,29.3,35.5,36.4c26.5,19.9,46.3,22,56.4,43.7c2.1,4.6,7.1,15.5,2.9,26.6
			c-3.7,9.7-12.6,15.1-15.3,16.6c-4.5,2.7-9.6,4.5-14.8,5.2c-1.6,0.2-3.3,0.3-4.9,0.3c-16.2,0-31.6-10.7-41.2-24.1
			C452.6,446.2,453.5,407,455.2,370.8 M455.2,360.8c-1,0-1.9,0.1-2.9,0.4c-4.1,1.2-6.9,4.9-7.1,9.1c-1.9,40.9-1.8,80.1,20.4,111.1
			c12.7,17.7,31.2,28.3,49.3,28.3c2.1,0,4.2-0.1,6.2-0.4c6.5-0.9,12.7-3.1,18.6-6.5c9.7-5.7,16.3-13,19.6-21.7
			c5.8-15.3-0.9-29.7-3.2-34.4c-7.9-16.8-20.3-23.8-34.8-31.9c-7.4-4.1-15.7-8.8-24.7-15.5c-12.4-9.3-23.6-20.8-33.4-34.3
			C461.4,362.3,458.3,360.8,455.2,360.8L455.2,360.8z"/>
	</g>
	<g opacity="0.75">
		<path fill="#FFFFFF" d="M455.2,370.8c-1.7,36.2-2.6,75.4,18.6,104.8c10.6,14.8,28.1,26.2,46.1,23.8c5.2-0.7,10.3-2.6,14.8-5.2
			c2.6-1.5,11.6-6.9,15.3-16.6c4.2-11.1-0.7-22.1-2.9-26.6c-10.1-21.7-29.9-23.8-56.4-43.7C481.3,400.1,468.3,388.7,455.2,370.8z"/>
	</g>
	<g opacity="0.27">
		<path d="M457.4,377.8c-1,11.9-3.2,55.4,26.7,92.1c12.1,14.8,25.6,24,35.8,29.5c8.2-14.2,16.5-28.4,24.7-42.6
			c-10.8-2.6-28-8.2-45.2-21.3C472.4,415.2,461.4,389.1,457.4,377.8z"/>
	</g>
</g>
<g id="left-back-horn">
	<g>
		<path fill="#244E93" d="M897.7,342.2c-16,0-28.2-5.2-33.5-14.1c-2.5-4.2-3.4-9.2-2.8-16.1c1.3-14.8,8.4-30,21.3-45.2l0.3-0.3
			c15.6-18.4,25.5-44.5,29.5-77.5c0.2-2,1.6-3.6,3.5-4.2c0.5-0.1,1-0.2,1.4-0.2c1.4,0,2.8,0.6,3.8,1.8
			c13.5,15.9,23.7,33.6,30.6,52.8c5.8,16.3,9,33.5,9.6,51.2c0,0.5,0,0.9-0.1,1.4c-5.9,23.4-23.9,42.3-46,48.3
			C909.9,341.5,903.8,342.2,897.7,342.2z"/>
		<path d="M917.6,189.6c9.6,11.3,21.5,28.3,29.7,51.3c6.7,19,8.9,36.3,9.3,49.6c-5.4,21.4-22.1,39.2-42.5,44.7
			c-5,1.3-10.7,2.1-16.3,2.1c-12.2,0-24.3-3.5-29.2-11.7c-1.4-2.4-2.7-5.9-2.1-13.1c1.8-21.3,17.1-38.8,20.5-42.7
			C899,255.5,912.5,231.6,917.6,189.6 M917.6,179.6c-1,0-1.9,0.1-2.9,0.4c-3.8,1.1-6.6,4.4-7,8.4c-3.8,32-13.4,57.2-28.3,74.9
			l-0.3,0.3c-13.6,16-21.2,32.1-22.5,48c-0.7,7.9,0.4,13.9,3.4,19c6.2,10.6,20,16.6,37.8,16.6c6.5,0,13-0.8,18.9-2.4
			c23.8-6.4,43.3-26.8,49.5-51.9c0.2-0.9,0.3-1.8,0.3-2.8c-0.6-18.2-3.9-35.9-9.9-52.7c-7-19.8-17.6-38.1-31.5-54.4
			C923.3,180.8,920.5,179.6,917.6,179.6L917.6,179.6z"/>
	</g>
	<g opacity="0.75">
		<path fill="#FFFFFF" d="M917.6,189.6c9.6,11.3,21.5,28.3,29.7,51.3c6.7,19,8.9,36.3,9.3,49.6c-5.4,21.4-22.1,39.2-42.5,44.7
			c-15.8,4.3-38.4,2.4-45.5-9.6c-1.4-2.4-2.7-5.9-2.1-13.1c1.8-21.3,17.1-38.8,20.5-42.7C899,255.5,912.5,231.6,917.6,189.6z"/>
	</g>
	<path opacity="0.28" d="M954.7,296.6c-0.1,0.1-0.1,0.1-0.2,0.1c-1.2,0.2-4.7-27.4-8.5-44.1c-5.9-25.8-16.9-44.8-23.4-54.9
		c-2-2.7-4-5.2-5.8-7.5c12.1,30.4,9.8,51.1,5.2,64.6c-7.4,21.9-24.2,34.5-18.6,44.3c2,3.6,11.9,5.2,30.8,11.4
		c2.1,0.7,5.6,1.8,9.5,0.7c5.7-1.7,9.9-7.6,11.5-15.5C955,296.1,954.8,296.4,954.7,296.6z"/>
</g>
<g id="left-side-horn">
	<g>
		<path fill="#244E93" d="M1096.8,498.8c-2.1,0-4.2-0.9-5.7-2.4c-3.7-3.7-8.4-7.1-15.2-10.9c-2.9-1.6-5.9-3-9.1-4.5
			c-4.5-2.1-9.1-4.3-13.5-7.1c-14.3-9.2-24.3-23.6-33.2-36.3c-6.3-9-10-20.6-10.3-31.7c-0.1-3.3,1.9-6.4,5-7.6
			c45-18.2,92.9-25.3,139.1-32.2c0.4-0.1,0.8-0.1,1.2-0.1c2.5,0,4.9,1.2,6.4,3.2c1.8,2.4,2.1,5.5,0.8,8.2l-39.7,85.1
			c-5.2,11.1-11,23.7-20,33.7c-1.5,1.6-3.6,2.6-5.8,2.7C1097,498.8,1096.9,498.8,1096.8,498.8z"/>
		<path d="M1155.2,374c-13.2,28.4-26.5,56.7-39.7,85.1c-5.2,11.2-10.6,22.7-18.7,31.8c-5-5-10.9-8.9-17-12.3
			c-7.3-4.1-15.2-6.9-22.2-11.4c-12.8-8.2-22-21.3-30.9-34.1c-5.3-7.6-8.6-17.8-8.8-27.4C1061.8,387.9,1108.8,380.9,1155.2,374
			 M1155.2,358c-0.8,0-1.6,0.1-2.4,0.2c-46.7,6.9-95.1,14.1-141,32.7c-6.2,2.5-10.2,8.6-10,15.2c0.3,12.7,4.6,25.8,11.7,36.1
			c9.3,13.3,19.7,28.4,35.4,38.5c4.9,3.1,9.7,5.4,14.4,7.6c3.1,1.4,5.9,2.8,8.6,4.3c6.1,3.4,10.3,6.4,13.4,9.6c3,3,7.1,4.7,11.4,4.7
			c0.1,0,0.3,0,0.4,0c4.4-0.1,8.6-2,11.5-5.3c9.8-10.9,15.9-24.1,21.3-35.7l39.7-85.1c2.5-5.3,1.8-11.6-1.7-16.3
			C1165,360.4,1160.2,358,1155.2,358L1155.2,358z"/>
	</g>
	<g opacity="0.75">
		<path fill="#FFFFFF" d="M1096.8,490.8c8.1-9.1,13.5-20.5,18.7-31.8c13.2-28.4,26.5-56.7,39.7-85.1c-46.5,6.9-93.4,13.9-137.3,31.7
			c0.2,9.5,3.5,19.7,8.8,27.4c8.9,12.8,18.1,25.9,30.9,34.1c7.1,4.5,14.9,7.3,22.2,11.4C1085.9,482,1091.8,485.8,1096.8,490.8z"/>
	</g>
	<g opacity="0.28">
		<path d="M1113.8,435.2c6.3-12.7,14-26.3,23.6-40.4c3.8-5.6,7.7-10.9,11.5-15.8c-7.8,4.1-15.7,8.3-23.5,12.4
			c-12.4,6.2-24.8,12.4-37.2,18.6"/>
	</g>
</g>
<g id="right-horn-outlines">
	<g>
		<path d="M566.1,142.6c-19.9,61.9,2.2,131.3,35.2,179.4c33,48.1,82,88.9,82,88.9s33.1,30.3-9.4,71.1
			c-23.6,22.7-44.1,30.3-60.2,30.3c-12.9,0-22.9-4.9-29.5-10.9c-10.2-9.4-38-70.5-54.5-123.9C501.1,284,516.6,191,566.1,142.6
			 M566.2,127.6c-3.8,0-7.6,1.5-10.5,4.3c-26.8,26.2-44.7,63.8-51.9,108.9c-7.1,44.6-3,93.3,11.7,141.1
			c7.8,25.3,18.8,54.5,30.2,80.2c12.1,27.2,21.7,44.2,28.5,50.4c10.5,9.6,24.6,14.9,39.6,14.9c22.9,0,46.7-11.6,70.6-34.5
			c17.7-16.9,26.5-34.9,26.3-53.3c-0.3-23.6-15.4-38.1-17.2-39.7c-0.2-0.2-0.4-0.3-0.5-0.5c-0.5-0.4-47.9-40.1-79.3-85.9
			c-16.6-24.3-28.8-51.7-35.2-79.4c-7.2-31.3-6.6-60.6,1.9-86.9c2.1-6.6-0.5-13.7-6.4-17.3C571.6,128.3,568.9,127.6,566.2,127.6
			L566.2,127.6z"/>
	</g>
	<g>
		<path d="M767.6,924.5c7,0,14,1.1,20.6,3.5c13.1,4.8,26.9,16.8,30.5,30.8c3.7,14.6-6.9,26.5-14.7,37.8c-10.3,14.8-21,29.4-32,43.7
			c-5.7,7.3-11.5,14.5-17.3,21.7c-2.9,3.5-22.1,30.6-22.1,30.6s-12.8-89.2-11-133.7c0.3-8.1,0.9-17,6.7-22.6
			c2.5-2.5,5.8-4.1,9.1-5.4C746.8,926.9,757.3,924.5,767.6,924.5 M767.6,909.5c-11.8,0-24.3,2.6-36.1,7.5c-4.3,1.8-9.4,4.2-13.8,8.5
			c-10.3,10-10.9,24.2-11.3,32.7c-1.9,45.4,10.6,132.8,11.1,136.5c0.9,6.1,5.4,11,11.3,12.5c1.2,0.3,2.4,0.4,3.5,0.4
			c4.8,0,9.4-2.3,12.2-6.3c9.3-13,19.8-27.8,21.5-29.8c5.9-7.2,11.8-14.6,17.6-22c11.3-14.5,22.2-29.4,32.5-44.3
			c0.9-1.3,1.9-2.7,2.9-4.1c8-11.1,19-26.4,14-45.9c-5.2-20.3-23.8-35.3-39.9-41.2C785.3,911,776.6,909.5,767.6,909.5L767.6,909.5z"
			/>
	</g>
	<g>
		<path d="M393.7,407.2c14.4,44.8,35.7,63.7,52,72.7c41.7,23,86.4,1.4,107.3,30.3c11.6,16,7.4,36,7.2,37.5c-2.4,19-19.6,32-32.9,37
			c-5.4,2-11,3-16.6,3c-32.5,0-68.1-30.1-85.8-51.9C384.2,485.9,391.3,423.5,393.7,407.2 M393.7,395.2c-0.3,0-0.7,0-1,0
			c-5.6,0.5-10.1,4.7-10.9,10.2c-2.6,18.1-2.8,37.1-0.6,55c4.1,32,15.6,59.9,34.4,82.9c10.9,13.4,25.5,26.7,40,36.5
			c19.5,13.2,38,19.8,55.2,19.8c7.3,0,14.4-1.3,20.9-3.7c16.7-6.3,37.3-22.3,40.5-46.6l0-0.2c1.7-10.1,2.6-29.4-9.4-46.1
			c-14.6-20.1-37.2-21.4-59.1-22.5c-17.3-0.9-35.2-1.9-52.1-11.2c-20.4-11.2-36-33.4-46.4-65.8C403.5,398.5,398.9,395.2,393.7,395.2
			L393.7,395.2z"/>
	</g>
</g>
<g id="left-top-middle-horn">
	<g>
		<path fill="#244E93" d="M1032.3,372.6c-1,0-2-0.2-2.9-0.7l-88.7-44.3c-1.8-0.9-3.1-2.6-3.5-4.5c-0.4-2,0.1-4,1.4-5.5
			c0.5-0.6,50.8-60.3,58.2-114.3c7.4-54-12.2-95.3-12.4-95.7c-1.3-2.8-0.6-6.1,1.8-8c1.2-0.9,2.6-1.4,4-1.4c1.5,0,3,0.5,4.2,1.5
			c2.1,1.8,51.8,44.2,64.1,113.4c12.2,68.7-18.8,151.7-20.2,155.2c-0.7,1.7-2,3.1-3.7,3.7C1033.9,372.4,1033.1,372.6,1032.3,372.6z"
			/>
		<path d="M990.2,104.7c0,0,49.9,41.9,61.9,109.6s-19.8,151.7-19.8,151.7l-88.7-44.3c0,0,51.9-61,59.7-117.6
			C1011.1,147.5,990.2,104.7,990.2,104.7 M990.2,91.7c-2.8,0-5.6,0.9-8,2.7c-4.8,3.8-6.4,10.4-3.7,15.9c0.2,0.4,19,40.3,11.9,92
			c-7.2,52.1-56.2,110.4-56.7,111c-2.6,3-3.6,7.1-2.8,11c0.8,3.9,3.4,7.2,6.9,9l88.7,44.3c1.8,0.9,3.8,1.4,5.8,1.4
			c1.6,0,3.2-0.3,4.7-0.9c3.4-1.3,6.1-4.1,7.4-7.5c1.4-3.6,33-88.2,20.5-158.6c-12.8-71.5-64.2-115.4-66.4-117.3
			C996.2,92.7,993.2,91.7,990.2,91.7L990.2,91.7z"/>
	</g>
	<g opacity="0.75">
		<path fill="#FFFFFF" d="M1032.3,366.1c0,0,31.9-84,19.8-151.7s-61.9-109.6-61.9-109.6s20.8,42.8,13,99.4s-59.7,117.6-59.7,117.6
			L1032.3,366.1z"/>
	</g>
	<g>
		<path opacity="0.28" d="M1043.8,182.4c0.2,0.5,0.4,1,0.6,1.5C1044.2,183.5,1044,182.9,1043.8,182.4z"/>
		<path opacity="0.28" d="M1044.8,185.2c0.2,0.5,0.4,1,0.6,1.5C1045.2,186.2,1045,185.7,1044.8,185.2z"/>
		<path opacity="0.28" d="M1042.8,179.8c0.2,0.5,0.4,1,0.6,1.5C1043.2,180.8,1043,180.3,1042.8,179.8z"/>
		<path opacity="0.28" d="M1040.6,174.5c0.2,0.5,0.5,1.1,0.7,1.6C1041,175.5,1040.8,175,1040.6,174.5z"/>
		<path opacity="0.28" d="M1041.7,177.1c0.2,0.5,0.4,1,0.6,1.6C1042.1,178.1,1041.9,177.6,1041.7,177.1z"/>
		<path opacity="0.28" d="M1048.5,196.4c0.2,0.5,0.3,1.1,0.5,1.6C1048.8,197.5,1048.6,196.9,1048.5,196.4z"/>
		<path opacity="0.28" d="M1039.4,171.9c0.2,0.5,0.5,1.1,0.7,1.6C1039.9,173,1039.7,172.4,1039.4,171.9z"/>
		<path opacity="0.28" d="M1049.3,199.3c0.1,0.5,0.3,1.1,0.4,1.7C1049.6,200.4,1049.5,199.8,1049.3,199.3z"/>
		<path opacity="0.28" d="M1046.7,190.7c0.2,0.5,0.3,1,0.5,1.6C1047.1,191.7,1046.9,191.2,1046.7,190.7z"/>
		<path opacity="0.28" d="M1045.8,187.9c0.2,0.5,0.4,1,0.5,1.5C1046.2,188.9,1046,188.4,1045.8,187.9z"/>
		<path opacity="0.28" d="M1047.6,193.5c0.2,0.5,0.3,1.1,0.5,1.6C1048,194.6,1047.8,194,1047.6,193.5z"/>
		<path opacity="0.28" d="M1025.3,145.9c0.3,0.5,0.6,0.9,0.9,1.4C1025.9,146.8,1025.6,146.4,1025.3,145.9z"/>
		<path opacity="0.28" d="M1038.2,169.3c0.3,0.6,0.5,1.1,0.8,1.7C1038.8,170.4,1038.5,169.8,1038.2,169.3z"/>
		<path opacity="0.28" d="M1027.9,150.1c0.3,0.5,0.6,1,0.9,1.5C1028.5,151.1,1028.2,150.6,1027.9,150.1z"/>
		<path opacity="0.28" d="M1024,143.9c0.3,0.5,0.6,0.9,0.9,1.4C1024.6,144.8,1024.3,144.3,1024,143.9z"/>
		<path opacity="0.28" d="M1026.6,148c0.3,0.5,0.6,1,0.9,1.4C1027.2,148.9,1026.9,148.5,1026.6,148z"/>
		<path opacity="0.28" d="M1022.7,141.9c0.3,0.4,0.6,0.9,0.9,1.4C1023.3,142.8,1023,142.4,1022.7,141.9z"/>
		<path opacity="0.28" d="M1021.4,140c0.3,0.4,0.6,0.9,0.9,1.3C1022,140.9,1021.7,140.4,1021.4,140z"/>
		<path opacity="0.28" d="M1050.1,202.2c0.1,0.6,0.3,1.1,0.4,1.7C1050.4,203.4,1050.2,202.8,1050.1,202.2z"/>
		<path opacity="0.28" d="M1036.9,166.6c0.3,0.6,0.6,1.3,0.9,1.9C1037.6,167.8,1037.2,167.2,1036.9,166.6z"/>
		<path opacity="0.28" d="M1033,158.9c1.3,2.3,2.5,4.7,3.7,7.2C1035.5,163.6,1034.3,161.2,1033,158.9z"/>
		<path opacity="0.28" d="M1030.5,154.4c0.3,0.6,0.7,1.2,1,1.7C1031.1,155.6,1030.8,155,1030.5,154.4z"/>
		<path opacity="0.28" d="M1029.2,152.2c0.3,0.5,0.6,1.1,0.9,1.6C1029.8,153.3,1029.5,152.7,1029.2,152.2z"/>
		<path opacity="0.28" d="M1031.7,156.6c0.4,0.7,0.7,1.3,1.1,2C1032.5,158,1032.1,157.3,1031.7,156.6z"/>
		<path opacity="0.28" d="M1055.3,253.6c0-0.2,0-0.4,0-0.6C1055.4,253.2,1055.3,253.4,1055.3,253.6z"/>
		<path opacity="0.28" d="M1053.6,220.2c0,0.3,0.1,0.7,0.1,1C1053.7,220.9,1053.7,220.6,1053.6,220.2z"/>
		<path opacity="0.28" d="M1054,223.3c0,0.3,0.1,0.6,0.1,1C1054.1,223.9,1054.1,223.6,1054,223.3z"/>
		<path opacity="0.28" d="M1054.4,226.9c0,0.1,0,0.2,0,0.3C1054.5,227.1,1054.4,227,1054.4,226.9z"/>
		<path opacity="0.28" d="M1050.8,205.2c0.1,0.6,0.3,1.2,0.4,1.8C1051.1,206.4,1050.9,205.8,1050.8,205.2z"/>
		<path opacity="0.28" d="M1053.2,217.2c0,0.3,0.1,0.6,0.1,0.9C1053.3,217.8,1053.2,217.5,1053.2,217.2z"/>
		<path opacity="0.28" d="M1054.7,230.2c0,0.3,0,0.6,0.1,0.9C1054.8,230.8,1054.8,230.5,1054.7,230.2z"/>
		<path opacity="0.28" d="M1055,233.2c0,0.3,0,0.7,0.1,1C1055,233.9,1055,233.6,1055,233.2z"/>
		<path opacity="0.28" d="M1055.4,243.4c0,0.2,0,0.5,0,0.7C1055.4,243.9,1055.4,243.6,1055.4,243.4z"/>
		<path opacity="0.28" d="M1055.4,246.5c0,0.3,0,0.6,0,1C1055.4,247.1,1055.4,246.8,1055.4,246.5z"/>
		<path opacity="0.28" d="M1020.1,138.1c0.3,0.4,0.6,0.9,0.9,1.3C1020.7,139,1020.4,138.5,1020.1,138.1z"/>
		<path opacity="0.28" d="M1055.1,236.4c0,0.3,0,0.6,0,1C1055.2,237,1055.2,236.7,1055.1,236.4z"/>
		<path opacity="0.28" d="M1055.3,239.8c0,0.2,0,0.3,0,0.5C1055.3,240.2,1055.3,240,1055.3,239.8z"/>
		<path opacity="0.28" d="M1055.4,250.5c0-0.3,0-0.6,0-0.9C1055.4,249.9,1055.4,250.2,1055.4,250.5z"/>
		<path opacity="0.28" d="M1053.8,276.7c0-0.3,0.1-0.6,0.1-0.8C1053.8,276.1,1053.8,276.4,1053.8,276.7z"/>
		<path opacity="0.28" d="M1053.4,279.7c0-0.2,0-0.4,0.1-0.6C1053.5,279.3,1053.4,279.5,1053.4,279.7z"/>
		<path opacity="0.28" d="M997.8,111.3c-0.2-0.2-0.4-0.4-0.6-0.6C997.3,110.9,997.6,111.1,997.8,111.3z"/>
		<path opacity="0.28" d="M1051.5,208.2c0.1,0.7,0.3,1.4,0.4,2C1051.8,209.5,1051.6,208.9,1051.5,208.2z"/>
		<path opacity="0.28" d="M1052.1,211.2c0.2,1,0.4,2,0.6,3.1C1052.5,213.3,1052.3,212.3,1052.1,211.2z"/>
		<path opacity="0.28" d="M1054.7,266.7c0-0.2,0-0.4,0-0.6C1054.7,266.3,1054.7,266.5,1054.7,266.7z"/>
		<path opacity="0.28" d="M1055.1,260.6c0-0.3,0-0.6,0-0.9C1055.1,260,1055.1,260.3,1055.1,260.6z"/>
		<path opacity="0.28" d="M1054.1,273.6c0-0.3,0.1-0.5,0.1-0.8C1054.1,273.1,1054.1,273.3,1054.1,273.6z"/>
		<path opacity="0.28" d="M1054.9,263.7c0-0.3,0-0.6,0.1-0.9C1054.9,263.1,1054.9,263.4,1054.9,263.7z"/>
		<path opacity="0.28" d="M1055.2,257.1c0-0.2,0-0.3,0-0.5C1055.2,256.8,1055.2,257,1055.2,257.1z"/>
		<path opacity="0.28" d="M1054.4,270c0-0.1,0-0.1,0-0.2C1054.4,269.9,1054.4,269.9,1054.4,270z"/>
		<path opacity="0.28" d="M991.4,105.2C991.4,105.3,991.4,105.3,991.4,105.2C991.4,105.3,991.4,105.3,991.4,105.2z"/>
		<path opacity="0.28" d="M1042.8,334c0.1-0.2,0.1-0.5,0.2-0.7C1042.9,333.5,1042.9,333.8,1042.8,334z"/>
		<path opacity="0.28" d="M1046,321.2c0-0.1,0.1-0.2,0.1-0.3C1046.1,321,1046,321.1,1046,321.2z"/>
		<path opacity="0.28" d="M1044.8,326.5c0.1-0.2,0.1-0.5,0.2-0.7C1044.9,326,1044.8,326.2,1044.8,326.5z"/>
		<path opacity="0.28" d="M1046.7,318.3c0-0.1,0-0.2,0.1-0.3C1046.7,318.2,1046.7,318.3,1046.7,318.3z"/>
		<path opacity="0.28" d="M1043.5,331.5c0-0.1,0.1-0.2,0.1-0.4C1043.5,331.2,1043.5,331.3,1043.5,331.5z"/>
		<path opacity="0.28" d="M1044.2,328.8c0-0.2,0.1-0.3,0.1-0.5C1044.2,328.5,1044.2,328.6,1044.2,328.8z"/>
		<path opacity="0.28" d="M1045.4,324c0.1-0.2,0.1-0.4,0.2-0.7C1045.5,323.6,1045.4,323.8,1045.4,324z"/>
		<path opacity="0.28" d="M1049.6,304.4c0-0.2,0.1-0.4,0.1-0.6C1049.7,303.9,1049.6,304.1,1049.6,304.4z"/>
		<path opacity="0.28" d="M1050.1,301.6c0-0.2,0.1-0.5,0.1-0.7C1050.2,301.1,1050.2,301.3,1050.1,301.6z"/>
		<path opacity="0.28" d="M1047.8,313.2c0-0.2,0.1-0.5,0.1-0.7C1047.9,312.7,1047.9,312.9,1047.8,313.2z"/>
		<path opacity="0.28" d="M1048.4,310.2c0-0.1,0.1-0.3,0.1-0.4C1048.5,310,1048.5,310.1,1048.4,310.2z"/>
		<path opacity="0.28" d="M1047.2,315.8c0-0.2,0.1-0.4,0.1-0.6C1047.3,315.4,1047.3,315.6,1047.2,315.8z"/>
		<path opacity="0.28" d="M1037,353.8c0.1-0.3,0.2-0.6,0.3-1C1037.2,353.2,1037.1,353.5,1037,353.8z"/>
		<path opacity="0.28" d="M1037.5,352.3c0.1-0.3,0.2-0.6,0.3-0.9C1037.7,351.7,1037.6,352,1037.5,352.3z"/>
		<path opacity="0.28" d="M1038,350.8c0.1-0.3,0.2-0.6,0.3-0.9C1038.2,350.2,1038.1,350.5,1038,350.8z"/>
		<path opacity="0.28" d="M1018.7,136.2c0.3,0.4,0.6,0.9,1,1.3C1019.4,137.1,1019.1,136.7,1018.7,136.2z"/>
		<path opacity="0.28" d="M1035.9,357.3c0.3-1,0.7-2.1,1.1-3.3C1036.6,355.2,1036.2,356.3,1035.9,357.3z"/>
		<path opacity="0.28" d="M1042.2,336.2c0.1-0.2,0.1-0.5,0.2-0.7C1042.4,335.7,1042.3,336,1042.2,336.2z"/>
		<path opacity="0.28" d="M1038.5,349.1c0.1-0.4,0.3-0.9,0.4-1.3C1038.8,348.2,1038.6,348.6,1038.5,349.1z"/>
		<path opacity="0.28" d="M1041,340.7c0-0.1,0.1-0.3,0.1-0.4C1041.1,340.4,1041,340.6,1041,340.7z"/>
		<path opacity="0.28" d="M1041.6,338.3c0.1-0.2,0.1-0.4,0.2-0.6C1041.8,337.9,1041.7,338.1,1041.6,338.3z"/>
		<path opacity="0.28" d="M1039.8,344.9c0.1-0.3,0.2-0.5,0.2-0.8C1039.9,344.3,1039.8,344.6,1039.8,344.9z"/>
		<path opacity="0.28" d="M1039.2,346.7c0.1-0.3,0.2-0.5,0.2-0.8C1039.4,346.1,1039.3,346.4,1039.2,346.7z"/>
		<path opacity="0.28" d="M1040.3,343c0.1-0.3,0.1-0.5,0.2-0.8C1040.5,342.4,1040.4,342.7,1040.3,343z"/>
		<path opacity="0.28" d="M1050.6,298.6c0-0.2,0.1-0.4,0.1-0.5C1050.7,298.2,1050.7,298.4,1050.6,298.6z"/>
		<path opacity="0.28" d="M998.9,112.4c0.2,0.2,0.5,0.5,0.7,0.7C999.3,112.9,999.1,112.7,998.9,112.4z"/>
		<path opacity="0.28" d="M1003.8,117.7c0.3,0.3,0.6,0.7,0.9,1C1004.4,118.4,1004.1,118.1,1003.8,117.7z"/>
		<path opacity="0.28" d="M1001.7,115.5c0.3,0.3,0.5,0.6,0.8,0.9C1002.3,116,1002,115.7,1001.7,115.5z"/>
		<path opacity="0.28" d="M1002.8,116.6c0.3,0.3,0.6,0.6,0.9,0.9C1003.4,117.2,1003.1,116.9,1002.8,116.6z"/>
		<path opacity="0.28" d="M999.8,113.4c0.2,0.3,0.5,0.5,0.7,0.8C1000.3,113.9,1000,113.6,999.8,113.4z"/>
		<path opacity="0.28" d="M1000.8,114.4c0.3,0.3,0.5,0.5,0.8,0.8C1001.3,114.9,1001,114.7,1000.8,114.4z"/>
		<path opacity="0.28" d="M1004.9,119c0.3,0.4,0.7,0.7,1,1.1C1005.6,119.7,1005.3,119.3,1004.9,119z"/>
		<path opacity="0.28" d="M1016.1,132.6c0.3,0.5,0.7,0.9,1,1.4C1016.8,133.5,1016.4,133.1,1016.1,132.6z"/>
		<path opacity="0.28" d="M1017.4,134.4c0.3,0.4,0.7,0.9,1,1.4C1018.1,135.3,1017.7,134.9,1017.4,134.4z"/>
		<path opacity="0.28" d="M1014.7,130.8c0.4,0.5,0.7,1,1.1,1.5C1015.5,131.8,1015.1,131.3,1014.7,130.8z"/>
		<path opacity="0.28" d="M1006,120.2c0.4,0.4,0.7,0.8,1.1,1.3C1006.8,121.1,1006.4,120.6,1006,120.2z"/>
		<path opacity="0.28" d="M1007.2,121.5c2.3,2.7,4.8,5.8,7.4,9.1C1012,127.3,1009.5,124.3,1007.2,121.5z"/>
		<path opacity="0.28" d="M994.8,108.4c0.2,0.2,0.4,0.4,0.6,0.6C995.2,108.8,995,108.6,994.8,108.4z"/>
		<path opacity="0.28" d="M1029.8,351c0,0,10.5-37.6,14-56c3.6-18.3,6.4-48.5,3.9-75.5c-2.5-27-14.9-55-21.7-68.3
			c-6.7-13.1-21.3-32.5-33.8-44.3c15.7,30.1,30.8,65.3,32.7,103.7c2.4,51.1-25.9,92.7-47.9,129.9l55.9,25.5c0,0,1.2-3.1,3-8.7
			L1029.8,351z"/>
		<path opacity="0.28" d="M991.7,105.5c0,0,0.1,0.1,0.1,0.1C991.8,105.6,991.7,105.5,991.7,105.5z"/>
		<path opacity="0.28" d="M992,105.8c0.1,0.1,0.1,0.1,0.2,0.2C992.2,106,992.1,105.9,992,105.8z"/>
		<path opacity="0.28" d="M1052.1,289.4c0-0.3,0.1-0.5,0.1-0.8C1052.2,288.8,1052.2,289.1,1052.1,289.4z"/>
		<path opacity="0.28" d="M1052.6,286.3c0-0.2,0.1-0.4,0.1-0.7C1052.6,285.9,1052.6,286.1,1052.6,286.3z"/>
		<path opacity="0.28" d="M998,111.5c0.2,0.2,0.4,0.5,0.7,0.7C998.4,112,998.2,111.7,998,111.5z"/>
		<path opacity="0.28" d="M992.5,106.2c0.6,0.6,1.4,1.3,2.3,2.1C993.8,107.5,993.1,106.8,992.5,106.2z"/>
		<polygon opacity="0.28" points="991.2,105 991.1,105 991.1,105 		"/>
		<path opacity="0.28" d="M996.3,109.9c0.2,0.2,0.4,0.4,0.6,0.6C996.7,110.3,996.5,110.1,996.3,109.9z"/>
		<path opacity="0.28" d="M1051.7,292.3c0-0.2,0.1-0.4,0.1-0.6C1051.8,291.8,1051.7,292.1,1051.7,292.3z"/>
		<path opacity="0.28" d="M995.5,109.1c0.2,0.2,0.4,0.4,0.6,0.6C995.9,109.5,995.7,109.3,995.5,109.1z"/>
	</g>
</g>
<g id="right-bottom-back-horn">
	<g>
		<path fill="#244E93" d="M483.8,1016.3c-2.2,0-4.3-0.9-5.9-2.6c-2-2.2-2.7-5.3-1.6-8.1c9.2-25.5,18.9-46.8,27.5-65.6
			c3.5-7.7,6.8-15,9.8-21.8c23.2-53.9,34.6-72.8,56.2-78c3.7-0.9,7.6-1.3,11.6-1.3c16.7,0,31,7.7,35,10.1l0.2,0.1
			c19.9,11.8,26.7,25,28.9,34.1c2.9,11.9,0,32.6-30.1,63.6c-8.2,8.5-22.8,21.4-45.7,34.8c-24.4,14.3-52.5,25.8-83.7,34.4
			C485.2,1016.2,484.5,1016.3,483.8,1016.3z"/>
		<path d="M581.3,846.9c15.1,0,28.5,7.5,30.9,8.9c3.8,2.2,21.3,12.3,25.4,29.2c1,4.3,4.5,22.6-28,56.2c-18,18.6-57.4,48.3-125.8,67
			c12.9-35.8,27.1-63.7,37.1-86.9c23.1-53.6,33.3-69.2,50.7-73.4C574.8,847.2,578.1,846.9,581.3,846.9 M581.3,830.9L581.3,830.9
			c-4.6,0-9.1,0.5-13.4,1.6c-13.1,3.2-23.1,10.8-32.7,24.7c-7.8,11.4-15.9,27.7-29,57.9c-2.9,6.7-6.2,13.9-9.7,21.6
			c-8.6,18.9-18.4,40.3-27.8,66.2c-2,5.6-0.8,11.9,3.3,16.3c3.1,3.3,7.4,5.1,11.8,5.1c1.4,0,2.8-0.2,4.2-0.6
			c31.8-8.7,60.6-20.6,85.6-35.2c23.7-13.9,38.9-27.3,47.4-36.1c32.6-33.6,35.4-57.2,32.1-71.1c-4.6-19.2-20.3-31.9-32.6-39.1
			l-0.2-0.1C615.9,839.4,600,830.9,581.3,830.9L581.3,830.9z"/>
	</g>
	<g opacity="0.75">
		<path fill="#FFFFFF" d="M483.8,1008.3c12.9-35.8,27.1-63.7,37.1-86.9c23.1-53.6,33.3-69.2,50.7-73.4c18.7-4.5,37.6,6.1,40.6,7.8
			c3.8,2.2,21.3,12.3,25.4,29.2c1,4.3,4.5,22.6-28,56.2C591.5,959.8,552.1,989.6,483.8,1008.3z"/>
	</g>
	<g opacity="0.28">
		<path d="M575.4,958.9L575.4,958.9c-15.9,10.6-34,21.5-54.2,31.9c-12.9,6.6-25.4,12.4-37.4,17.5c9.2-9.2,19.3-20.5,29.2-34.4
			c12.9-18,21.9-35.2,28.2-49.6"/>
	</g>
</g>
<g id="left-bottom-horn">
	<g>
		<path fill="#244E93" d="M1242.3,897.4c-0.6,0-1.1-0.1-1.7-0.2l-101.2-21.4c-2.6-0.6-4.8-2.4-5.8-4.9c-1-2.5-0.7-5.3,0.8-7.5
			l50.3-73.3c1.5-2.2,4-3.5,6.6-3.5c0.1,0,0.3,0,0.4,0c2.8,0.2,5.3,1.7,6.6,4.2l50.9,94.8c1.5,2.7,1.2,6.1-0.6,8.6
			C1247.2,896.2,1244.8,897.4,1242.3,897.4z"/>
		<path d="M1191.4,794.6l50.9,94.8l-101.2-21.4L1191.4,794.6 M1191.4,778.6c-5.3,0-10.2,2.6-13.2,6.9l-50.3,73.3
			c-3,4.4-3.6,10-1.7,15c2,5,6.3,8.6,11.5,9.7L1239,905c1.1,0.2,2.2,0.3,3.3,0.3c5,0,9.7-2.3,12.8-6.4c3.7-5,4.2-11.7,1.3-17.2
			l-50.9-94.8c-2.6-4.9-7.7-8.1-13.2-8.4C1192,778.6,1191.7,778.6,1191.4,778.6L1191.4,778.6z"/>
	</g>
	<g opacity="0.75">
		<polygon fill="#FFFFFF" points="1191.4,794.6 1242.3,889.4 1141.1,867.9 		"/>
	</g>
	<path opacity="0.28" d="M1136.1,867.9l106.2,21.5c-9.7-5.8-21.7-14.4-33.5-26.9c-17.9-18.8-27.7-38.2-33-51.3"/>
</g>
<g id="body">
	<circle fill="#C63B34" stroke="#000000" stroke-width="20" stroke-miterlimit="10" cx="836.4" cy="680.3" r="378"/>
	
		<radialGradient id="SVGID_00000026142159558619913370000014626459478219127435_" cx="953.5547" cy="368.3307" r="639.5521" gradientTransform="matrix(-1 0 0 1 1633.9563 0)" gradientUnits="userSpaceOnUse">
		<stop  offset="0.4672" style="stop-color:#FFFFFF"/>
		<stop  offset="0.5231" style="stop-color:#FAFAFA"/>
		<stop  offset="0.589" style="stop-color:#ECECEC"/>
		<stop  offset="0.6599" style="stop-color:#D4D4D4"/>
		<stop  offset="0.7345" style="stop-color:#B3B3B3"/>
		<stop  offset="0.8118" style="stop-color:#888888"/>
		<stop  offset="0.8915" style="stop-color:#545454"/>
		<stop  offset="0.9716" style="stop-color:#171717"/>
		<stop  offset="1" style="stop-color:#000000"/>
	</radialGradient>
	
		<circle opacity="0.5" fill="url(#SVGID_00000026142159558619913370000014626459478219127435_)" stroke="#000000" stroke-width="20" stroke-miterlimit="10" cx="836.4" cy="680.3" r="378"/>
	<g id="Layer_23">
		<g opacity="0.37">
			<path fill="#D66C44" d="M563.2,679.8c2.3-5.2,4.7-10.4,7-15.7c0-1.1,0.1-2.2,0.1-3.4c0-2.9-0.2-5.9,1.7-8.3
				c2.1-2.8,5.8-4,8.8-5.4c3.4-1.7,7.9-4.8,11.6-5.6c3.2-0.7,6.4,1.6,9,3.1c1.6,1,3.2,2,4.8,3.1c1.9,1.1,3.8,2.4,5.1,4
				c2.5,2.1,4.9,4.3,7.2,6.5c2.9,2.8,5.8,5.6,8.7,8.5c2.3,2.2,5.2,4.4,6.5,7.3c1.5,3.4,0.6,7.4,0.3,11c-0.4,4.1-0.4,8.5-1.3,12.4
				c-0.5,2.2-1.6,3.7-3,4.8c0.2,2.5-1.4,5-4.8,5.2c-7.5,0.3-15-0.5-22.3-2.3c-1.3-0.3-2.2-1.1-2.8-2c-2.7-0.7-5.4-1.4-8.1-2.3
				c-1-0.3-1.8-0.8-2.3-1.4c-0.8,2.7-4.3,3.8-6.8,2.9c-4.8,6.4-14.2,0.4-19.3-2.8C555.2,694.4,560.2,686.5,563.2,679.8z"/>
			<path fill="#D66C44" d="M486.4,710c2.8-8.8,5.7-17.6,8.5-26.3c1.1-3.4,4.6-4.1,7.1-3c4.5,0.6,8.6,2.3,13,3.6
				c5.1,1.6,10.3,2.8,15.5,3.9c2.9,0.6,4.1,3.7,3.4,6.3c2.2,4,4.1,8.1,5.8,12.2c0,0.1,0,0.1,0.1,0.2c0,0,0,0,0,0
				c0.2,0.4,0.3,0.8,0.5,1.2c0.4,1,0.4,1.9,0.1,2.8c0,0.1,0.1,0.2,0.1,0.3c0.6,2.3,1.2,4.6,1.8,6.9c1.7,4,2.8,8.1,2.6,12.4
				c0.7,4.7,1,9.4,0.6,14.2c3.2,1.8,3.6,7.8-1,9.4c-4.9,1.6-9.8,3.3-14.7,4.9c-5.6,3.2-11.4,6.2-17.3,8.9c-2.7,1.2-5.7,0.4-6.9-2
				c-0.3-0.2-0.7-0.5-1-0.9c-2.5-3-4.7-6-6.8-9.2c-1.3-1.6-2.5-3.4-3.3-5.4c0,0,0,0,0,0c-3.4-5.9-6.1-12.1-8.2-18.7
				c-0.1-0.3-0.1-0.6-0.2-0.8C483.6,723.7,484.1,717.2,486.4,710z"/>
			<path fill="#D66C44" d="M534.1,813.9c2.5-10,15.2-10.3,21.5-16.4c1.2-1.2,2.8-1.6,4.3-1.4c0.6-0.6,1.4-1.1,2.6-1.3
				c6.7-1.2,10.3,3.6,14.5,8.1c5.3,5.7,10.7,11.4,16,17.1c2.2,2.4,1.8,6.2-1,7.9c-5.5,3.3-11.8,4.4-17.6,7
				c-6.1,2.6-11.8,6.2-17,10.4c-4,3.3-9.1,0.1-8.4-4.9C550.7,829.4,531.3,825.3,534.1,813.9z"/>
			<path fill="#D66C44" d="M609.7,817c4.1,2.7,9.5,1.6,13.9,4c4.7,2.6,10.3,5.8,15.7,3.3c5.7-2.6,6.5-11.7,8.1-17
				c1.7-5.5,6.3-14.3,3.6-19.9c-2.5-5.2-10.9-9.1-15.7-11.6c-6.3-3.2-12.9-5.6-19.8-7.2c-4.1-0.9-6.6,2.8-6.2,5.9
				c-0.3,0.5-0.4,1.2-0.5,1.9c-0.7,8.3-1.4,16.6-2.2,24.8C606.2,806.5,604.4,813.5,609.7,817z M640.3,796.3c-0.2,0.7-0.4,1.3-0.6,2
				c0.6-2.3,1.2-4.7,1.3-7.1c0.2,0.2,0.3,0.4,0.4,0.5c0,0.2,0,0.4,0,0.9C641.5,793.6,640.6,795.3,640.3,796.3z"/>
			<path fill="#D66C44" d="M787.1,781.3c3.1-8.3,6.3-16.6,9.4-24.8c1.2-3.3,4.2-4.3,7.3-3c7.8,3.4,14,9.5,17.5,17.2
				c0.3,0.6,0.4,1.2,0.5,1.8c1.5,1,2.5,2.8,1.9,5.2l-7.6,29.9c-1.1,4.4-6.9,4.7-9.1,1.2c-2.5-3.9-5.2-7.5-8.3-11
				c-2.8-3.1-7.1-6-9.1-9.7c-0.2-0.5-0.4-0.9-0.6-1.4C787.3,785.8,786.2,783.9,787.1,781.3z"/>
			<path fill="#D66C44" d="M675.1,707.7c3.4-11.9,7.4-23.6,11.7-35.2c0-1.3-0.1-2.6-0.1-4c-0.1-2,0.7-3.3,2-4.1
				c1.5-1.7,3.9-2.6,6-1.2c1.3-0.1,2.6,0.3,3.7,1.4c12.7,12.4,26,24.3,39.9,35.5c1.3,1.1,1.8,2.3,1.7,3.5c1.2,1.3,2.2,2.6,3.2,4
				c1.5,2.2,0.4,5.6-1.8,6.8c-3.7,2-7.8,2.9-11.8,4.2c-4.2,1.5-8.3,3.4-12.1,5.7c-7.7,4.6-14.5,10.6-19.9,17.8
				c-2.8,3.7-9.4,2.9-9.3-2.5c0.1-6-2-11.2-5.2-16.2c-2.1-3.2-5.8-6.6-6-10.5C675.4,712.1,674.4,710.2,675.1,707.7z"/>
			<path fill="#D66C44" d="M592,564.8c9,8.1,17.1,16.9,24.3,26.6c1.8,2.5,5.4,3.5,7.9,1c4.8-5,10-9.4,15.9-13c4.3-2.6,13-4.8,13-11
				c0-2.9-2.7-5.4-4.4-7.5c-2.5-3.1-5-6.2-7.4-9.3l-14.9-18.6c-2.1-2.6-5-1.9-6.7,0c-1.8-2.3-5.2-3.1-7.5-0.7
				c-7.9,8.1-14.8,16.9-20.8,26.5C590.1,560.5,590.4,563.3,592,564.8z M639.2,564.6c0.7,0.9,1.5,1.8,2.1,2.8c-0.6,0.3-1.1,0.6-1.7,1
				c0.1-0.6,0.1-1.3,0-2.1C639.5,565.7,639.4,565.1,639.2,564.6z M630.1,574c0.7-0.7,1.3-1.4,1.9-2.1c0.2,0.1,0.5,0.3,0.7,0.3
				C631.9,572.8,631,573.4,630.1,574z"/>
			<path fill="#D66C44" d="M658.3,609.3c3.6-4.5,8-9.2,11.1-14.4c1.9,0.9,3.8,1.8,5.7,2.9c0.1,0.6,0.2,1.2,0.2,1.8
				c0.5,4.3,1.1,8.6,1.8,12.9c1,6.7,4,15.5,2.4,22.2c-0.2,0.9-0.2,1.7,0,2.4c-0.2,0.3-0.4,0.5-0.6,0.8c-2.5,3.1-4.6,6.6-6.8,9.9
				c-2.8,4.4-5.5,10.1-8.8,14.9c-3.1,0.3-6.2,0.5-9.3,0.7c-2.3-7.8-5.9-15.2-8.6-23c-1.3-3.6-2.1-7.5-3.2-11.1
				C647.8,622.8,653,616,658.3,609.3z"/>
			<path fill="#D66C44" d="M691.5,877c2.7,2.2,5.3,4.4,8.1,6.4c2.2-9.7,5.4-19.1,9.9-28c2.3-4.5,4.9-8.7,7.5-12.9
				c1.9-3,3.3-6.7,0.9-9.9c-2.8-3.7-9-5.8-13-7.9c-4.9-2.7-9.8-5.4-14.7-8.1c-0.7-0.4-1.4-0.8-2.1-1.2c-0.2,3.6-0.5,7.2-0.9,10.8
				c0.1,9.2,0.6,18.4,1.2,27.6C689,861.6,690.9,869.3,691.5,877z M696.3,860.5c0-0.2-0.1-0.4-0.1-0.5c0.3-0.4,0.6-0.9,0.9-1.3
				C696.8,859.2,696.5,859.8,696.3,860.5z"/>
			<path fill="#D66C44" d="M604.8,934.5c-0.4,0.2-0.8,0.4-1.1,0.7c-0.4,0.1-0.7,0.2-1.1,0.3c-1.3-1.9-2.8-3.7-4.3-5.4
				c4.9-6.8,7.8-15,12.7-21.8c4.7-6.5,9.6-12.7,13.5-19.7c0.4,0.3,0.7,0.5,1.1,0.8c5.5,4.4,10.6,9.4,15.5,14.5
				c4.2,4.3,8.3,8.8,12.2,13.3C637.2,922.9,620.5,927.3,604.8,934.5z"/>
			<path fill="#D66C44" d="M839.8,832.9c4.4-5.9,9.1-11.6,13.6-17.4c0.7-0.9,1.7-1.4,2.8-1.5c2.2-1.7,5.5-1.9,7,1.4
				c4.3,9.7,8.6,19.4,13,29.1c1.3,2.8,0.4,6.5-3,7.3c-3.7,0.9-7.3,1.7-11,2.4c-2.9,0.5-6.4,1.5-9.3,0.8c-2.5-0.6-3.8-2.1-5.1-4.2
				c-1.7-2.7-3.4-4.6-5.9-6.5C837.5,841.2,836.5,837.3,839.8,832.9z"/>
			<path fill="#D66C44" d="M824.3,914c5.8,3.7,11.5,7.5,17.4,11c4.5,2.7,9,2.6,11.9-2.2c3.3-5.5,5.7-11.9,7.7-17.9
				c1.8-5.3,1.2-8.8-2.7-12.8c-4.1-4.4-8.7-8.4-13.5-12.1c-4.5-3.4-8.9-6.4-14.7-4.9c-1.6,0.4-2.6,1.4-3.2,2.5
				c-1.2,0.5-2.3,1.6-2.8,3.1c-0.9,2.8-1.8,5.6-2.7,8.4c-0.3,0.4-0.5,0.9-0.6,1.5c-0.1,0.4-0.2,0.9-0.2,1.3c-1,3.2-2,6.4-2.9,9.6
				C816.2,908.2,818.8,910.5,824.3,914z M843.5,914.3c0.1-0.1,0.3-0.1,0.4-0.2c0.9,0.5,1.9,0.8,2.9,0.8c-0.2,0.4-0.4,0.9-0.7,1.3
				C845.2,915.6,844.2,914.9,843.5,914.3z M847.1,894.4c0.5,0.4,0.9,0.8,1.4,1.3c-0.1,0-0.2,0.1-0.3,0.2
				C847.8,895.4,847.4,894.9,847.1,894.4z"/>
			<path fill="#D66C44" d="M908.3,924.3c0.5,5.7,8.8,9.9,12.8,13.1c4.3,3.5,10.2,10.7,16.4,7.5c2.9-1.5,5.3-4.9,7.5-7.3
				c2.5-2.8,4.9-5.6,7.3-8.4c4-4.8,8.7-10.1,9.1-16.6c0.4-6.9-4.5-11.6-8.8-16.4c-5.2-5.9-10.4-11.9-15.7-17.8
				c-1.9-2.2-4.4-1.9-6.1-0.6c-2.4-2.1-7.1-1.9-8.5,2.1c-2.7,8.1-5.4,16.2-8.1,24.3c-1.2,3.7-2.5,7.5-3.7,11.2
				C909.6,918.2,908,921.3,908.3,924.3z M951.4,912.4c-0.1-0.3-0.2-0.5-0.3-0.8c0.1-0.3,0.1-0.6,0.2-1c0,0,0,0.1,0,0.1
				C951.5,911.4,951.5,911.9,951.4,912.4z"/>
			<path fill="#D66C44" d="M887.4,985.6c5-8.1,10.4-16.2,14.9-24.6c0.2-0.3,0.4-0.6,0.6-0.9c1.2,0.5,2.3,1.2,3.3,2.1
				c4.4,7.9,10.2,14.8,14.9,22.6c-3,3.2-6.2,6.3-9.5,9.4c-6.1,5.7-12.5,11.9-19.5,16.7c-0.3-0.4-0.6-0.8-0.8-1.3
				c-1.4-0.5-2.6-1.6-3.2-3.3c-0.8-2.3-1.9-4.4-3.3-6.4c-0.6-0.9-0.8-1.8-0.8-2.7c-0.2-0.4-0.3-0.7-0.4-1.1
				C882.6,992.2,885.5,988.7,887.4,985.6z"/>
			<path fill="#D66C44" d="M901.7,848.2c0,0.7,0,1.5,0.2,2.3c0,0.1,0.1,0.2,0.1,0.3c0.3,1.9,0.8,3.8,1.2,5.8c0.3,1.5,1.1,2.5,2,3.1
				c0,0.2,0.1,0.4,0.1,0.7c0.5,3.8,3.8,6.1,7.5,4.3c4.6-2.2,9.1-4.4,13.7-6.7c2.9-1.4,5.5-2.9,6.4-6.3c0.9-3.5-0.4-7.7-1.1-11.1
				c-1-5-2.2-10-3.6-14.9c-0.4-1.5-1.3-2.5-2.4-3c-1.9-2.2-6-2.7-8.4,0.4c-4.6,6-9.6,11.9-13.9,18.2
				C901.9,843.5,901.5,845.8,901.7,848.2z M915.1,852.4c-0.4,0.2-0.9,0.4-1.3,0.7c-0.1-0.2-0.1-0.4-0.2-0.5
				C914.1,852.5,914.6,852.5,915.1,852.4z"/>
			<path fill="#D66C44" d="M835.8,967.3c4.5-4.6,7.7-9.2,10.9-14.7c3-5.1,6.4-9.7,11.6-12.7c0.4-0.3,0.9-0.4,1.4-0.5
				c0.2,0.4,0.3,0.8,0.5,1.1c0.4,7.5,1.6,15,2.2,22.5c0.3,3.8,0.9,7.4,1.8,11.2c0.4,2,1.3,4.6,1.3,6.9c-1.8,1.7-3.6,3.3-5.3,4.9
				c-4.7,4.4-9.3,8.8-14,13.3c-1.8,1.7-5.3,2.1-7.1,0c-2.3-2.8-4.6-5.7-6.7-8.6c-1.9-2.6-4.5-5.5-5-8.7
				C826.5,976.2,832.2,971,835.8,967.3z"/>
			<path fill="#D66C44" d="M564.4,893.5c0,3.1,3.2,5.8,6.3,4.8c5.5-1.8,11-3.6,16.5-5.5c4-1.3,8.4-2.5,11.4-5.7
				c3-3.1,3.9-7.7,5.3-11.6c1.8-5.2,4-10.2,6.5-15.1c1.3-2.5,0.4-4.8-1.3-6.2c-0.7-3-4.6-5.3-7.5-3.5c-9.8,6.1-20.1,10.8-30.3,16.2
				C561.8,871.9,564.4,884.5,564.4,893.5z M575.4,886.2l-1.1,0.3c0-0.4,0-0.8,0-1.2C574.6,885.7,575,886,575.4,886.2z"/>
			<path fill="#D66C44" d="M633.8,967.7c4.3-7.4,11.5-13.3,17.3-19.5c3.6-3.8,7.2-7.6,10.8-11.5c2.4-2.6,4.9-6,8.5-7.1
				c3.2-1,5.4-0.1,6.7,1.6c1.2,0.5,2.2,1.5,2.4,3.3c1,6.5,1.7,12.9,2,19.5c0.2,4.9,1.3,11.4-4.4,13.4c-5.3,1.9-11.9,2.1-17.5,3.2
				c-6.8,1.4-13.5,2.9-20.3,4.5C635.3,976,631.5,971.5,633.8,967.7z"/>
			<path fill="#D66C44" d="M997,889.3c0,0,0.1-0.1,0.1-0.1c6.4,7.1,11.9,14.9,19.5,20.8c-3.8,5-8.4,9.4-12.5,14.2
				c-3.9,4.7-7,10.3-11.1,14.9c-3.6-10.1-6.5-20.5-9-31C987.9,901.6,992.2,895.3,997,889.3z"/>
			<path fill="#D66C44" d="M978.2,979c6-9.4,12.3-18.6,18.9-27.7c1-1.4,2.4-2.1,3.9-2.3c2.2-1.2,5.1-1.1,6.9,1.6
				c2.5,3.9,6.5,8.3,7.9,12.8c1.2,3.7-1.1,7.7-3.7,10.3c-3,3-6.9,4.7-10.9,6c-5.6,1.8-10.9,3.6-16.2,6.1
				C980.9,987.9,975.4,983.6,978.2,979z"/>
			<path fill="#D66C44" d="M940.6,960.2c6.9-10.8,14.5-21.2,22.6-31.1c2.2-2.7,7.8-1.4,8.4,2.2c0.1,1,0.2,2,0.3,3
				c0.8,0.8,1.3,1.9,1.3,3.4c-0.1,7.9,6.8,15.4,2.6,23c-4.3,7.9-10.9,15.1-16.2,22.3c-2,2.8-6.8,3.7-8.6,0
				c-3-6.2-6.5-12.1-10.4-17.8C939.6,963.9,939.7,961.6,940.6,960.2z"/>
			<path fill="#D66C44" d="M1018.9,930c6.7-9.7,12.8-19.8,18.3-30.3c1-1.8,2.5-2.5,4-2.5c1-0.5,2.2-0.6,3.3-0.2
				c7.9,2.8,10.5,10.1,16.5,15.2c1.6,1.4,1.9,4.3,0.8,6.1c-7,11-14,22.1-21,33.1c-2.2,3.4-6.4,3-8.6,0c-4-5.2-8.2-10.3-12.5-15.3
				C1018.3,934.5,1017.6,931.9,1018.9,930z"/>
			<path fill="#D66C44" d="M1051.8,867.7c0.8-1.1,2-1.9,3.4-2.3c1.4-1.6,3.7-2.5,6.2-1.3c9.7,5,18.3,11.8,26.5,18.9
				c3.1,2.7,7,5.2,5.5,9.9c-1.8,5.5-5.9,10.9-8.7,16c-1.9,3.5-6.6,3-8.6,0c-5.6-8.2-12.6-15.4-20.7-21.1c-2.9-2-7.3-3.6-8.7-7.1
				C1045,876.3,1049.3,871.1,1051.8,867.7z"/>
			<path fill="#D66C44" d="M1089.3,851.4c0.6,4.1,4,7.7,6.5,10.8c2.8,3.4,5.9,6.4,9.2,9.2c2.6,2.2,7.6,1.8,8.4-2.2
				c0.8-4.2,1.8-8.4,3.3-12.4c1.2-3.2,3.5-6.5,2.7-10.1c-0.7-3.6-3.9-7.6-5.7-10.8c-2.2-3.8-4.5-7.6-6.7-11.4
				c-0.3-0.5-0.8-1-1.2-1.3c-2.4-2.8-7.6-2.9-8.6,1.7c-1.1,4.9-2.4,9.6-4.2,14.3C1091.4,843,1088.6,847.1,1089.3,851.4z
				 M1105.5,858.6c-0.2-0.2-0.4-0.4-0.6-0.6c0.3,0,0.6,0,0.8-0.1C1105.7,858.2,1105.6,858.4,1105.5,858.6z"/>
			<path fill="#D66C44" d="M1104.9,775.7c6.6-1,13.2-1.7,19.8-2.6c1.9,0.4,3.8,0.8,5.8,1c2.7,0.3,5,2.1,5,5
				c0.2,11.4,0.3,22.8,0.5,34.2c-9.4-3.9-18.3-8.7-27.7-12.6c-3.1-1.3-6.3-2.4-9.4-3.7c-1.7-1.1-3.4-2.1-5.2-3
				c-0.9-2.6-0.8-5.4-0.8-8.4c0-3.2-0.1-6.4-0.1-9.5C1097,775.7,1101.5,776.2,1104.9,775.7z"/>
			<path fill="#D66C44" d="M1119.1,745.8c5.9-14.3,12.7-28.2,20.6-41.5c1.9-3.2,6.8-3.3,8.6,0c1.8,3.3,3.9,6.4,6.3,9.2
				c0.8,0.2,1.7,0.7,2.4,1.5c5.6,6.3,11.4,12.5,17.3,18.6c2.4,2.5,1.6,5.9-1,7.9c-4.1,3.1-8.2,6.1-12.3,9.2c-3.1,2.3-6.1,5.1-9.9,6
				c-4.2,0.9-8.8-0.7-12.8-1.5c-5.2-1-10.4-2.1-15.7-3.1C1120.2,751.4,1118.2,748.1,1119.1,745.8z"/>
			<path fill="#D66C44" d="M1076.6,708.1c-4.8-1.6-9.9-2.7-14.6-4.1c-2.8-0.8-5.2,0.8-6.2,3.3c-5.2,12.2-9.8,24.6-13.7,37.3
				c-1.3,4.3,3.2,7.6,7.1,5.9c9.9-4.4,20.2-7.5,30.9-9.5L1076.6,708.1z"/>
			<path fill="#D66C44" d="M1150.3,675.8c7,3,14.2,7.1,21.5,9.2c6.7,1.9,10.8-4.3,14.8-8.7c2.5-2.8,6.1-5.9,7.4-9.5
				c0.9-1.4,1.1-3.1,0.1-5c0,0,0,0,0,0c-0.2-0.6-0.5-1.2-0.9-1.8c-0.3-0.5-0.6-0.9-0.9-1.3c-5-8.2-11.7-16.1-18.2-22.9
				c-2.2-2.3-6.3-1.8-7.9,1c-1.5,2.7-2.9,5.4-4.2,8.1c-5,7.7-9.5,15.7-13.4,24C1147.4,671.2,1147.6,674.7,1150.3,675.8z
				 M1159.6,669.1c0.2-0.3,0.3-0.6,0.5-1c0.2,0.5,0.4,1,0.6,1.4L1159.6,669.1z"/>
			<path fill="#D66C44" d="M1058.6,666.4c0.8-6,5.3-7.6,10.4-9.8c12-5.1,24.1-10.1,36.2-15c3.9-1.6,8.2,4,5.6,7.3
				c-0.2,0.2-0.4,0.5-0.5,0.7c0.2,1,0.1,2.2-0.5,3.4c-2.7,5.2-5.5,10.4-8.2,15.6c-2.2,4.1-4.1,10.3-7.7,13.3
				c-3.2,2.7-8.3,2.7-12.2,3.5c-5.8,1.1-11.7,2.3-17.5,3.4c-3,0.6-6.5-1.4-6.3-4.8C1057.9,678.3,1057.8,672.2,1058.6,666.4z"/>
			<path fill="#D66C44" d="M1099.2,610.3c2.9-8,5.2-16.1,7-24.3c0.1-0.6,0.4-1.1,0.7-1.5c0-3.2,4.5-6.2,7.8-3.3
				c4.9,4.3,9.7,8.5,14.6,12.8c3.3,2.9,8.8,6.1,6.8,11.2c-1.6,4.3-6.5,8.1-9.6,11.3c-4.2,4.3-8.4,8.5-12.6,12.8
				c-2.2,2.2-5.3,1.3-7-0.9c-2.5-3.3-5.8-6.7-7.8-10.3C1097.6,615.3,1098.3,613,1099.2,610.3z"/>
			<path fill="#D66C44" d="M1125.2,554.9c0.8-3,3.1-5.8,4.6-8.5l6.6-11.3c1.2-2,3.9-2.9,6.1-2.2c1.5-0.5,3.3-0.2,4.8,1.2
				c4.2,3.9,13.9,13.1,12.2,19.7c-0.8,3.3-4.7,6.3-6.8,8.7c-3.3,3.8-6.7,7.5-10,11.3c-2.3,2.6-6.1,1.4-7.9-1c-2.3-3.3-4.7-6.6-7-10
				C1125.9,560.4,1124.3,558,1125.2,554.9z"/>
			<path fill="#D66C44" d="M1162.2,602c5.8-11.2,12.3-22,19.3-32.4c1.2-1.8,2.8-2.5,4.4-2.4c2.5-1.7,6.7-1.2,7.8,2.6
				c2.5,8.2,4.8,16.5,7.5,24.7c1.1,3.3-1.7,6.1-4.8,6.3c-9.7,0.7-18.9,3.4-27.4,8C1164.6,611.2,1159.9,606.4,1162.2,602z"/>
			<path fill="#D66C44" d="M1064.2,538.3c5.7-12.5,12.8-24.6,20-36.3c1.7-2.7,4.6-2.8,6.8-1.6c2.4-0.6,4.9,0.4,5.6,3.4
				c2.8,13.7,5.3,27.4,7.5,41.2c0.9,5.4,1.7,9.8-3.5,13c-3.7,2.3-11.1,6.9-15.4,4.8c-2.5-1.2-4.9-3.8-7.1-5.5l-9.1-7.1
				C1064.5,546.9,1061.6,544,1064.2,538.3z"/>
			<path fill="#D66C44" d="M1109.2,513.2c-0.1,4.2,4.2,5.7,7.5,4.3c6-2.6,11.9-5.5,17.6-8.8c3.9-2.2,9-4.6,7.7-10
				c-1.2-4.8-6.4-9.7-9.4-13.5c-3.9-4.8-7.8-9.4-10.4-15c-2.1-4.6-7.9-2.4-9,1.5c-1.4,0.9-2.4,2.4-2.6,4.1
				C1110,488.3,1109.5,500.7,1109.2,513.2z M1130.5,498.8c0.1,0.2,0.3,0.4,0.4,0.6c-0.3,0.2-0.7,0.4-1,0.6
				C1130.2,499.7,1130.4,499.3,1130.5,498.8z"/>
			<path fill="#D66C44" d="M1049.5,451.7c0.7,3.4,4.3,6.3,6.1,9.2c1.9,3,3.5,6.1,5.1,9.2c3.6,7,7.4,13.9,13.2,19.4
				c2.8,2.6,7.3,1.5,8.4-2.2c2.6-8.9,2.5-18.1,2.6-27.3c0.1-9.9,0.1-19.8,0-29.7c0-2.2-1.2-3.7-2.8-4.4c-0.4-1.7-1.5-3.2-3.4-3.4
				c-7-1.1-17.8-4.1-21.6,3.7c-1.8,3.8-2.8,8.1-4.2,12.1C1051.6,442.1,1048.6,447.4,1049.5,451.7z M1074.4,474.3
				c-0.5-0.8-1-1.6-1.4-2.4c0.5,0.1,1.1,0.1,1.6,0C1074.5,472.7,1074.5,473.5,1074.4,474.3z"/>
			<path fill="#D66C44" d="M992.5,434.7c0.2,0.5,0.6,1,1,1.5c2.3,2.7,6.6,4.4,9.6,6.2c4.3,2.6,8.7,5.3,13,7.9
				c2.3,1.4,5.5,0.5,6.8-1.8c5.1-8.6,10.6-16.9,16.6-24.9c1.7-2.2,1-4.4-0.6-5.8c0.4-1.5,0.1-3.1-1.4-4.5c-6-5.3-12-10.6-18-16
				c-0.6-1.3-1.8-2.3-3.2-2.8c-1.5-2.6-5.1-4-7.5-1c-8.2,9.9-13.6,22.5-19.8,33.7C987.1,430.8,989.6,434,992.5,434.7z M1014.2,412.9
				c0.1,0.3,0.2,0.5,0.3,0.8c-0.3,0.2-0.7,0.4-0.9,0.7c0-0.1,0.1-0.3,0.1-0.4L1014.2,412.9z M1017,439.2l-0.8-0.5
				c0.4,0,0.8,0,1.1-0.1C1017.2,438.8,1017.1,439,1017,439.2z"/>
			<path fill="#D66C44" d="M962.3,460.1c0.7-2.8,1.7-5.5,3-7.9c0-1.2,0.4-2.4,1.5-3.4c0.5-0.5,1.1-1,1.6-1.5
				c1.3-1.7,2.7-3.3,4.4-4.8c0.7-0.7,1.5-1.1,2.3-1.2c3.9-2.9,8.1-4.2,12.6-0.6c7.9,6.5,14.8,14.5,22.1,21.7
				c2.5,2.5,1.5,5.7-0.6,7.4c0.1,3.1-2.3,6.3-6.2,5.2c-12.3-3.6-24.7-6.5-37.2-8.7C963.1,465.7,961.7,462.5,962.3,460.1z"/>
			<path fill="#D66C44" d="M1023.2,491.1c1.4-2.7,4-5.1,5.9-7.6c2.7-3.3,5.4-6.6,8.1-9.9c0.9-1.1,2.2-1.5,3.5-1.5
				c2.2-2.5,7.4-2.5,9,1.7c1.5,3.8,2.9,7.6,4.4,11.4c1.3,3.3,2.2,5.9,0.1,9c-4.4,6.4-11.1,11.9-16.4,17.5c-2.8,3-7.1,1.1-8.4-2.2
				c-1.5-3.7-3.4-6.9-5.5-10.4C1022.5,496.5,1021.6,494,1023.2,491.1z"/>
			<path fill="#D66C44" d="M962.1,358.4c0,13.4,0.9,26.7,2.7,40c0.8,5.7,7.7,6.7,9.8,1.3l3.9-9.6c3-3.6,5.9-7.3,8.6-11.1
				c3.1-4.3,7.2-9,8-14.4c0.4-2.7-1.1-4.8-3.1-5.7c-0.8-1-2-1.6-3.6-1.7c-6.3-0.2-11.6-6-18.1-5.7c-1.7,0.1-3.1,0.9-4.1,2.1
				C964,353.9,962.1,355.5,962.1,358.4z M983.7,366.4c-0.2,0.3-0.4,0.7-0.6,1c-0.1-0.4-0.2-0.9-0.3-1.3
				C983.2,366.2,983.5,366.3,983.7,366.4z"/>
			<path fill="#D66C44" d="M1018.3,363.8c5.5,3.8,12.2,5.8,17.8,9.5c4.2,2.8,7.9,6.1,11.8,9.2c1.4,1.1,2.8,2.1,4.3,3.2
				c-4.3,1.3-8.7,2.6-13,4.1c-3.8,1.3-8,3.6-12,3.7c-1.6,0.1-3.6-1-4.3-2.5c-2.7-6.2-2.6-14.7-3.5-21.4c-0.1-0.5-0.1-0.9,0-1.4
				C1017.9,367.1,1017.7,365.4,1018.3,363.8z"/>
			<path fill="#D66C44" d="M892.1,389.6c2.9,4.6,6.3,8.9,9.4,13.4c1.9,2.7,5.4,3.4,7.9,1c5.2-5,10.4-9.9,15.6-14.9
				c3.5-3.4,9.5-7.2,10.4-12.4c0.9-5.1-2.8-11-5.5-15.1c-3.2-4.9-7.2-9.4-11.1-13.8c-1.7-1.9-3.8-1.9-5.5-1
				c-1.9-0.5-3.9,0.1-5.1,2.3c-5.3,9.9-10.6,19.9-15.9,29.8C890.3,383,889.7,385.7,892.1,389.6z M919.3,380.7
				c-0.7,0.6-1.3,1.3-2,1.9c0,0,0-0.1,0-0.1c0.2-0.1,0.4-0.3,0.5-0.4c0.9-0.8,1.6-1.8,2.1-2.9c0.3,0.2,0.5,0.3,0.8,0.4
				C920.2,380,919.7,380.4,919.3,380.7z"/>
			<path fill="#D66C44" d="M901.8,441.8c5.8-0.2,11.5-0.5,17.2-0.9c4.6-0.3,9.9-0.2,14.3-1.7c3.9-1.4,7-5.2,9.9-7.9
				c4-3.7,7.9-7.3,11.9-11c1.6-1.5,1.9-4.3,0.8-6.1c-3.4-5.5-5.9-11.1-7.6-17.4c-0.7-2.8-3.1-3.8-5.3-3.5c-1.7-0.9-3.9-1-5.8,0.7
				c-3.6,3.1-7.2,6.1-11.2,8.7c-3.4,2.2-6.6,4.3-9.2,7.4c-6.4,7.5-12.4,15.4-18.6,23.1C895.8,436.4,897.1,441.9,901.8,441.8z
				 M929.9,429.6C929.9,429.5,929.9,429.5,929.9,429.6c1.8-1,3.4-2.6,4.1-4.6c0.2-0.1,0.4-0.3,0.5-0.4c0.4,0.1,0.9,0.1,1.3,0.2
				C934,426.6,932.1,428.5,929.9,429.6z"/>
			<path fill="#D66C44" d="M834.2,379.9c3.8,3.7,7.4,7.6,10.7,11.8c2,2.5,6.5,1.6,7.9-1c2.9-5.5,6.2-10.7,10.1-15.4
				c2.9-3.4,7.7-6.6,9.5-10.8c2.2-4.9-0.8-9-4.3-12.2c-5-4.6-10.2-9.1-15.2-13.7c-1.2-1.1-2.6-1.4-3.8-1.3c-2.1-0.8-4.7-0.5-6.2,1.9
				c-5.9,8.8-10.5,18.7-12.7,29.1C829,373.4,830.5,376.3,834.2,379.9z M862.1,361.6c-0.5,0.5-1,1-1.5,1.5c0.2-0.3,0.4-0.6,0.6-1
				c0.3-0.7,0.5-1.4,0.6-2.1c0.4,0.3,0.8,0.7,1.1,0.8C862.6,361.1,862.4,361.3,862.1,361.6z"/>
			<path fill="#D66C44" d="M854.1,431.1c2.1-8.7,5.6-16.9,10-24.7c2-3.5,6.5-2.9,8.6,0c2.5,3.3,4.3,6.8,5.6,10.5
				c1.2,2.3,2.4,4.7,3.7,7c1.7,3.2,4.4,6.8,3.4,10.7c-0.9,3.1-3.9,5.8-6,8.1c-2.9,3.2-6.1,6.1-9.3,8.9c-2,1.7-5.1,2.1-7.1,0
				c-2.9-3.2-6.7-6.4-9-10.1C852,438.3,853.2,434.5,854.1,431.1z"/>
			<path fill="#D66C44" d="M873.5,319.3c9.9,0.5,19.7,2.2,29.1,5.2c3.9,1.2,4.2,5.5,2.4,8.1c-0.1,0.7-0.3,1.4-0.9,2.2
				c-0.3,0.3-0.5,0.7-0.8,1c0,0,0,0,0,0c-0.1,0.1-0.1,0.1-0.2,0.2c-4.1,5.2-8.9,9.5-14.8,12.8c-0.8,0.5-1.7,0.7-2.5,0.7
				c-1.3,1.1-2.6,2.1-4,3c-3.3,2-7.4-0.6-7.5-4.3c-0.3-7.4-3.7-15.3-5.7-22.4C867.8,322.6,870.2,319.1,873.5,319.3z"/>
			<path fill="#D66C44" d="M750.4,350c-0.1,3.8,3.6,6.6,5.5,9.5c2.6,3.8,4.4,7.8,5.7,12.2c0.9,3,4.6,4.8,7.3,3
				c3.6-2.3,7.3-4.2,11.1-6.2c1.7-0.9,0.4-0.8,2.3,0.5c1.5,1,3.2,1.8,4.8,2.7c4.4,2.6,11.1,8.5,16,3.8c1-1,1.9-2.2,2.7-3.6
				c10.5-13.4,20.8-27.3,24.8-44.1c0.8-3.4-2.4-7.5-6.2-6.2c-18.6,6.9-37.5,13-56.6,18.3C762.8,341.4,750.7,342.6,750.4,350z
				 M765.1,351.1C765.1,351.1,765.1,351.1,765.1,351.1c-0.2,0.5-0.4,1.1-0.5,1.8c-0.1,0.5-0.1,0.9-0.1,1.3c-0.3-0.4-0.5-0.8-0.8-1.2
				c-0.2-0.3-0.6-0.8-1.1-1.2C763.4,351.6,764.2,351.4,765.1,351.1z"/>
			<path fill="#D66C44" d="M689,392.9c1-5.2,1.7-10.4,1.8-15.7c0.1-4.1-1.2-9.7,0.6-13.6c1.6-3.4,5.9-4.8,9.1-6.2
				c4.5-2,9-3.6,13.8-4.8c0.9-0.2,1.8-0.2,2.5,0c1.8-0.4,3.7,0.2,4.8,2.4c7.2,14.8,8.8,32.4,12,48.5c0.9,4.5-3.3,7.5-7.3,5.6
				c-10.8-4.9-22.1-8.2-33.8-10.1C689.7,398.6,688.6,395.3,689,392.9z"/>
			<path fill="#D66C44" d="M751.7,406.8c1.2-6.2,2.9-12.2,5-18.1c0.6-1.6,1.7-2.6,3-3.1c1-2.6,4-4.5,7.1-2.7c6.6,3.8,12.9,8,19,12.6
				c4.4,3.3,10.7,6.7,8.6,13.2c-1.1,3.3-3.5,6.5-5.1,9.6c-1.6,3.1-3.1,6.3-4.5,9.6c-3.1,7.2-5.5,14.6-7.6,22.1
				c-1.2,4.4-6.8,4.6-9.1,1.2c-3.5-5.2-7.1-10.4-10.6-15.7c-2.7-4-6.8-8.4-7.4-13.3C749.4,417.3,750.8,411.6,751.7,406.8z"/>
			<path fill="#D66C44" d="M804,416.8c0.6-2.2,2.1-3.5,3.9-4.6c0-1.9,1.1-3.8,3.6-4.4c7.4-1.8,23.8-3.7,25.9,6.4
				c1.1,5.2,1.3,10.7,1.6,16c0.2,4.6,0.3,9.1-2.3,13c-1.4,2.1-4.5,3.4-6.8,1.8c-7.8-5.3-15-11.4-21.2-18.5
				C806.1,423.9,802.9,420.8,804,416.8z"/>
			<path fill="#D66C44" d="M777.4,498.5c0,6,5,6.5,9.7,6.5c3.5,0,6.8,0.5,10.1,1.3c2.2,0.6,4.2,1.3,6.4,0.9
				c6.3-1.2,4.9-7.8,5.9-12.5c1.1-5.1,3-13.4,7.4-16.7c3.1-2.3,2.5-6.3,0.4-8.4c0-1.5-0.7-2.9-2.4-3.9c-3.4-2-6.7-4.1-10.1-6.1
				c-1.9-1.1-3.8-2.4-6-2.4c-5-0.2-9.5,4.6-12.1,8.3c-3.3,4.7-5,10.4-6.2,16C779.5,486.9,777.5,493,777.4,498.5z M799.1,467.5
				c0.4,0.2,0.9,0.5,1.4,0.8c-1.1-0.1-2.3,0.1-3.4,0.7c-0.1,0-0.1,0.1-0.2,0.1c0.3-0.3,0.5-0.5,0.8-0.8
				C798.5,467.9,798.9,467.7,799.1,467.5z"/>
			<path fill="#D66C44" d="M706.1,447.2c0.9,1.2,1.6,2.4,2.5,3.7c2.4,3.5,5,7.1,7.6,10.4c3.9,4.9,8.9,9.6,12.4,15
				c5.2,2.5,10.3,5.4,15.2,8.5c2.3,1.5,5,0.6,6.5-1.4c-1.1-3.5-2.8-7.1-3.9-10.4c-1.7-5.4-3.5-10.7-5.5-16c-3.3-8.8-7-18.2-12-26.3
				c-0.8-0.3-1.4-0.9-1.9-1.6c-0.9,0.1-1.8,0.5-2.6,1.1c-3.8,3.1-7.5,6.3-11.1,9.8C711.2,442.1,708.2,444.5,706.1,447.2z
				 M739.8,470.8c0.4-0.1,0.8-0.3,1.2-0.6c0,0.4,0.1,0.8,0.1,1.2C740.7,471.2,740.2,471,739.8,470.8z"/>
			<path fill="#D66C44" d="M495.9,662.1c13-5.2,26.2-0.5,38.8,3.8c4.4,1.5,8.8,2.6,11.5-2.3c3-5.6,4-12.5,4.6-18.7
				c0.4-3.9-3.2-5.4-6.2-4.5c-12.2-8.8-25.2-16.5-38.7-23.1c-2.6-1.3-6.8-0.4-7.3,3c-1.9,12.1-4.8,24-8.7,35.7
				C488.6,659.3,492.3,663.5,495.9,662.1z M531.8,654.5c-0.6-0.2-1.1-0.5-1.6-0.6c0.2-0.1,0.4-0.2,0.6-0.4c0.2,0.1,0.3,0.3,0.5,0.4
				c0.1,0.1,0.3,0.2,0.4,0.3C531.7,654.3,531.7,654.4,531.8,654.5z"/>
			<path fill="#D66C44" d="M539,593.6c0.7-4.5,7.2-7,10.6-9.1c5.3-3.4,10.5-6.7,15.8-10.1c2.6-1.7,5.1-0.6,6.4,1.4
				c2.3,0.9,3.3,3.7,2.8,6c-2.5,12.6-5.5,25.2-8.9,37.6c-1.2,4.5-6.7,4.5-9.1,1.2c-3.5-4.8-7.1-9.6-10.6-14.4
				C543.4,602.8,538.3,598.3,539,593.6z"/>
			<path fill="#D66C44" d="M550,451.4c0.2,0.2,0.3,0.5,0.4,0.7c0.4,0.5,0.7,1.2,0.9,2.1c0.8,4.4,2.5,9.4,2.3,14
				c-0.1,2.5-0.1,3.8,0.7,6.4c0.7,2.5,1.4,4.9,2.1,7.4c1,3.5-2.5,7.5-6.2,6.2c0,0-0.1,0-0.1-0.1c-7.5,0.1-15,0.2-22.5,0.4
				c-1.1,0-2-0.3-2.8-0.8c0,0,0,0,0,0C533,475.3,539.8,461.9,550,451.4z"/>
			<path fill="#D66C44" d="M490.3,800.4c-0.8-2.2-1.6-4.3-2.4-6.5c-0.1-0.5-0.2-0.9-0.4-1.4c-0.5-1.9-1.1-3.8-1.8-5.6
				c2.6-1.6,5.9-2.6,8.2-3.6l8.5-3.8c2.3-1,4.9-2.7,7.5-2.3c4.4,0.6,7.6,7,9.7,10.4c2.5,4.2,6,9.9,6.3,14.9
				c0.3,5.1-4.9,8.5-8.1,11.7c-4.9,4.8-9.8,9.7-14.7,14.5c-0.3,0.3-0.7,0.6-1,0.8c-1-2.3-2.5-4.5-3.5-6.8c-2-4.4-3.6-8.9-5.1-13.5
				C492.4,806.2,491.4,803.3,490.3,800.4C490.3,800.4,490.3,800.4,490.3,800.4z"/>
			<path fill="#D66C44" d="M1058.6,835.8c0.3-1.6,1.3-2.8,2.7-3.5c4.3-3.9,9-7.2,14.2-9.8c4.2-2.1,8,1.9,7.6,5.3c0.8,3,1.6,6,2.2,9
				c0.6,2.9,1.5,6.3-0.2,9.1c-1.4,2.4-4.1,3.3-6.6,4.3c-3.5,1.4-7.1,2.8-10.7,4.2c-3.9,1.5-6.4-2-6-5.3c-1.1-3.5-2.1-7-3-10.6
				C1058.5,837.7,1058.4,836.7,1058.6,835.8z"/>
			<path fill="#D66C44" d="M1011.5,876.8c-0.3-1.4-0.1-3,1.2-4.4c3.9-4.3,7.1-9,9.9-14.1c0.7-1.4,1.8-2.1,3-2.4
				c2.6-1.6,6.5-1.1,7.4,2.7c1,4.7,2,9.4,2.7,14.2c0.6,3.7,2.4,9.2,1,12.8c-3.4,8.9-14.7-1.1-20.2-0.1
				C1011.1,886.4,1008.3,879.6,1011.5,876.8z"/>
			<path fill="#D66C44" d="M966.6,872.6c0.4-0.5,0.9-0.8,1.4-1c0,0,0,0,0-0.1c0.3-0.4,0.5-0.8,0.8-1.3c1.9-3.1,6.8-3.4,8.6,0
				c1.5,2.7,3,5.5,4.4,8.2c1.1,2.1,2.2,4.3,1.6,6.7c-0.7,2.6-3.2,4.1-5.2,5.7c-1.9,1.5-3.8,3.5-6.1,4.3c-5.5,2.1-8.9-4.9-11.1-8.8
				C957.8,880.6,963,876.7,966.6,872.6z"/>
			<path fill="#D66C44" d="M874.7,922.9c3.5-0.7,7-1.5,10.4-2.5c3.1-0.9,5.2,1,5.9,3.4c2.4,0.8,3.9,3.6,3.2,6L887,955
				c-1.3,4.5-8.6,5-9.6,0c-1.8-8.7-3.8-17.4-6.1-26C870.5,926.5,872,923.4,874.7,922.9z"/>
			<path fill="#D66C44" d="M778.2,883.7c-0.3-0.8-0.3-1.8-0.1-2.8c0.7-2.4,3.6-4.5,6.2-3.5c5.5,2.2,11.1,4.3,16.6,6.5
				c2.5,1,4.3,3.4,3.5,6.2c-0.4,1.4-1.5,2.6-2.9,3.3c-0.2,0.4-0.5,0.8-0.9,1.2c-4.5,4.8-9,9.6-13.5,14.3c-3.1,3.3-8.4,0.7-8.5-3.5
				c-0.2-6.6-0.5-13.2-0.7-19.7C777.8,885,778,884.3,778.2,883.7z"/>
			<path fill="#D66C44" d="M743.2,844.1c1.9-9.3,6.8-18.6,10.2-27.4c1.1-2.7,3.6-4.1,6.1-3.4c2.1-0.9,4.7-0.6,6.4,1.8
				c1.5,2.2,3.4,4,5.6,5.5c2.1,1.4,4.2,2.4,5.2,4.8c1.9,4.8-2.7,11.4-4.6,15.7c-1.8,4.2-3.2,10.4-8,12.3c-2.4,0.9-4.4,0.3-6.7-0.5
				c-3.1-1.1-6-2.1-9.3-2.3C744.7,850.2,742.6,847.5,743.2,844.1z"/>
			<path fill="#D66C44" d="M631.4,720.8c0.6-3.2,3.8-5.8,7.1-3.3c4,3,8,6,11.9,9c2.7,2.1,6.4,4.1,6,8.1c-0.3,3.4-3.8,5.9-5.9,8.3
				l-10.8,11.6c-3.2,3.4-8.2,0.5-8.5-3.5c-0.8-8.6-1.6-17.2-2.3-25.8C628.6,723.1,629.8,721.6,631.4,720.8z"/>
			<path fill="#D66C44" d="M642.4,886.9c0.1,3.6-0.3,8,3.5,9.9c3.8,1.9,10.1,0,14.2,0.2c3.7,0.2,8.6,2,11.7-0.7
				c3.5-3,1.9-9.5,1.7-13.5c-0.2-5.2-0.4-10.4-0.7-15.5c0.2-0.9,0.5-1.8,0.7-2.7c0.9-3.5-2.5-7.4-6.2-6.2
				c-5.2,1.7-10.3,3.6-15.3,5.7c-4,1.7-9,2.9-9.8,7.8C641.4,876.7,642.2,882.1,642.4,886.9z M663.8,887.3c-0.2,0-0.5,0-0.7-0.1
				c0,0,0,0,0,0c0.4-0.2,0.7-0.4,1-0.6c0,0.2,0,0.5,0,0.7C664,887.3,663.8,887.3,663.8,887.3z"/>
			<path fill="#D66C44" d="M708.9,778.6c8.4-8.6,16.7-17.9,27.7-23.3c4.7-2.3,9,3.1,7.2,6.6c0,0.2,0,0.5,0,0.7
				c-0.1,5.1-0.2,10.3-0.3,15.4c-0.1,3.6,0.7,8.4-0.5,11.8c-1.6,4.8-5.6,4.7-9.7,3.3c-2.4-0.4-4.4-1.7-7.1-2.9
				c-4.3-1.8-8.9-2.9-13.6-3.3C708.2,786.8,705.7,781.9,708.9,778.6z"/>
			<path fill="#D66C44" d="M719.8,900.3c3-8.8,6.4-17.5,10-26c0.5-1.1,1.2-1.9,2-2.4c1-3.9,6.8-6,9.1-1.5c3.2,6.4,6.4,12.9,9.7,19.3
				c1.6,3.2,3.2,6.4,4.8,9.7c1.2,2.4,3,5.1,3.3,7.8c0.5,5.7-4.9,7-9.1,8.6c-5.9,2.2-11.4,5.4-16.2,9.5c-2.2,1.8-6.5,2.2-7.9-1
				c-2-4.7-4.3-9.3-6.1-14C718.2,906.6,718.6,903.9,719.8,900.3z"/>
			<path fill="#D66C44" d="M565,748.9c2.9-9.4,5-19.7,8.9-28.8c3.2-7.5,8.9-4.3,13.2,0.2c1.3,1.3,3.3,3.3,5.2,5.5
				c0.5,0.5,0.9,1,1.3,1.6c1.7,2.3,3.1,4.7,3,7c0.2,0.4,0.4,0.8,0.6,1.2c1.5,3,3.8,7.1,3.2,10.5c-0.7,3.9-5.1,6.4-7.9,8.8
				c-4.3,3.6-8.5,7.3-12.8,10.9c-1.8,1.5-3.8,1.4-5.7,0c-3-2.3-8.3-5-10.1-8.4C562.7,754.6,564.1,751.6,565,748.9z"/>
			<path fill="#D66C44" d="M737.1,545c-1.4-6.2-6-12.2-10-16.9c-3-3.6-7.8-9.1-12.7-6.4c-1.7-0.3-3.4,0.4-4.3,2.6
				c-3.2,7.3-6.3,14.5-9.5,21.8c-2.6,5.9-4,10.7,1.3,15.5c3,2.7,6.5,5.1,9.7,7.6c2.1,1.6,4.2,3.9,6.9,4.4c6.4,1.2,9.5-7.2,12.2-11.5
				C733.9,556.9,738.5,551.5,737.1,545z"/>
			<path fill="#D66C44" d="M767.7,584.1c-13.5,3-27.2,5.2-41,6.5c-4.6,0.4-5.9,5.8-3.9,8.5c1.8,9.8,4.6,19.4,8.2,28.7
				c1.2,3.1,5.7,5.4,8.4,2.2c10.5-13,21.5-25.5,33.1-37.5C776.1,588.8,772.5,583,767.7,584.1z M739,599.2c-1.8,1.1-3.5,2.4-5,3.8
				c-0.2-1-0.5-2.1-0.7-3.1C735.1,599.7,737.1,599.5,739,599.2z M752.6,599.3c-0.2-0.7-0.5-1.4-0.9-1.9c1-0.2,2.1-0.3,3.1-0.5
				C754.1,597.6,753.3,598.5,752.6,599.3z"/>
			<path fill="#D66C44" d="M1066.5,783.2c-0.3-4.9-1.6-10-3.4-14.5c-0.4-0.9-0.9-1.6-1.6-2.2c-1.3-2-3.8-3.1-6.5-1.6
				c-6.1,3.5-11.6,7.8-16.5,12.9c-1.8,1.9-2,5.2,0,7.1c3.7,3.4,7.5,7.1,11.7,9.9c4,2.8,6.6,1.2,9.9-1.8
				C1063.2,790.1,1066.8,787.8,1066.5,783.2z"/>
			<path fill="#D66C44" d="M1046.9,813c-7-6.3-12.5-12.6-17.6-20.5c-1-1.6-2.5-2.3-4-2.3c-2.6-1.3-6.1-0.7-6.8,3
				c-1.1,6.2-2.1,12.4-2.9,18.7c-0.7,5.4-2.6,12.4-1.5,17.8c0.9,4.6,5.8,6,9.6,7.5c5.9,2.4,12,4.2,18.3,5.4c2.5,0.5,5.5-0.7,6.2-3.5
				c1.1-5.1,2.6-10.3,3.4-15.5C1052.2,818.9,1050.3,816.1,1046.9,813z M1036.2,816.9c-0.3-0.1-0.6-0.2-0.9-0.3
				c-0.4-0.7-1-1.3-1.8-1.9c0-0.1-0.1-0.3-0.1-0.4c0.4,0.4,0.8,0.8,1.2,1.2C1035.1,816,1035.6,816.4,1036.2,816.9z"/>
			<path fill="#D66C44" d="M987.7,844.4c-3.9-7.2-3.6-19.2-10.4-24.6c-1.7-1.4-4.1-2.1-6.1-0.8c-4,2.6-6.5,8-8.7,12.1
				c-2.7,4.8-5,9.8-7,15c-0.6,1.5-0.2,3,0.7,4.2c0.4,2.6,2.8,5.2,6.2,4.5c6.9-1.4,13.9-2.3,20.9-2.8
				C987.2,851.7,989.6,847.9,987.7,844.4z"/>
		</g>
	</g>
	<path id="body-ring-highlight-base" fill="#C63B34" d="M836.1,323c48,0,94.6,9.4,138.4,27.9c42.3,17.9,80.4,43.6,113,76.2
		c32.7,32.7,58.3,70.7,76.2,113c18.5,43.8,27.9,90.4,27.9,138.4s-9.4,94.6-27.9,138.4c-17.9,42.3-43.6,80.4-76.2,113
		c-32.7,32.7-70.7,58.3-113,76.2c-43.8,18.5-90.4,27.9-138.4,27.9s-94.6-9.4-138.4-27.9c-42.3-17.9-80.4-43.6-113-76.2
		c-32.7-32.7-58.3-70.7-76.2-113c-18.5-43.8-27.9-90.4-27.9-138.4s9.4-94.6,27.9-138.4c17.9-42.3,43.6-80.4,76.2-113
		c32.7-32.7,70.7-58.3,113-76.2C741.5,332.4,788.1,323,836.1,323 M836.1,310.2c-203.4,0-368.4,164.9-368.4,368.4
		s164.9,368.4,368.4,368.4s368.4-164.9,368.4-368.4S1039.5,310.2,836.1,310.2L836.1,310.2z"/>
	
		<linearGradient id="body-ring-highlight-gradient_00000072983857701577827820000001288592993004758974_" gradientUnits="userSpaceOnUse" x1="987.2112" y1="913.3578" x2="825.769" y2="662.5219">
		<stop  offset="0" style="stop-color:#F1F1F1"/>
		<stop  offset="1" style="stop-color:#000000"/>
	</linearGradient>
	
		<path id="body-ring-highlight-gradient" opacity="5.000000e-02" fill="url(#body-ring-highlight-gradient_00000072983857701577827820000001288592993004758974_)" d="
		M836.1,323c48,0,94.6,9.4,138.4,27.9c42.3,17.9,80.4,43.6,113,76.2c32.7,32.7,58.3,70.7,76.2,113c18.5,43.8,27.9,90.4,27.9,138.4
		s-9.4,94.6-27.9,138.4c-17.9,42.3-43.6,80.4-76.2,113c-32.7,32.7-70.7,58.3-113,76.2c-43.8,18.5-90.4,27.9-138.4,27.9
		s-94.6-9.4-138.4-27.9c-42.3-17.9-80.4-43.6-113-76.2c-32.7-32.7-58.3-70.7-76.2-113c-18.5-43.8-27.9-90.4-27.9-138.4
		s9.4-94.6,27.9-138.4c17.9-42.3,43.6-80.4,76.2-113c32.7-32.7,70.7-58.3,113-76.2C741.5,332.4,788.1,323,836.1,323 M836.1,310.2
		c-203.4,0-368.4,164.9-368.4,368.4s164.9,368.4,368.4,368.4s368.4-164.9,368.4-368.4S1039.5,310.2,836.1,310.2L836.1,310.2z"/>
	<path fill="#E59B55" d="M995.8,563.9"/>
</g>
<g id="horn-shadows">
	
		<radialGradient id="SVGID_00000108290060337959240200000013801437711270179517_" cx="978.3482" cy="469.0396" r="160.6847" gradientTransform="matrix(-1 0 0 1 1633.9563 0)" gradientUnits="userSpaceOnUse">
		<stop  offset="0.1077" style="stop-color:#000000"/>
		<stop  offset="1" style="stop-color:#000000;stop-opacity:0"/>
	</radialGradient>
	<path opacity="0.3" fill="url(#SVGID_00000108290060337959240200000013801437711270179517_)" d="M683.4,410.9
		c20.4,17.1,42.3,37.7,64.3,62.1c34.7,38.4,60.4,76.1,79.5,108.6c-59.8-8.8-126.9-25.2-197-54.6c-13.7-5.7-26.9-11.7-39.6-17.9
		c-21.2-26.4-19.7-64.8,3.4-89.4C617.2,394.8,655.7,391,683.4,410.9z"/>
	
		<radialGradient id="SVGID_00000161604406171553201220000006736794726258963625_" cx="1090.8011" cy="554.5365" r="186.5886" gradientTransform="matrix(-1 0 0 1 1633.9563 0)" gradientUnits="userSpaceOnUse">
		<stop  offset="0.1077" style="stop-color:#000000"/>
		<stop  offset="1" style="stop-color:#000000;stop-opacity:0"/>
	</radialGradient>
	<path opacity="0.3" fill="url(#SVGID_00000161604406171553201220000006736794726258963625_)" d="M551.7,504.9
		c34,21,39.5,54,61.9,83.8c12.9,17.2,34.8,37.8,74,51.5c-15.2,7-45.4,18.1-83.2,13.6c-4.1-0.5-65-8.7-104.2-60.7
		c-12.9-17.1-31.4-41.6-22.3-65.7c6.6-17.6,26.7-31.4,46.5-31.4C533.6,496,542.1,499,551.7,504.9z"/>
</g>
<g id="right-bottom-front-horn">
	<path fill="#244E93" d="M732.5,1092.7c0,0-12.8-89.2-11-133.7c0.3-8.1,0.9-17,6.7-22.6c2.5-2.5,5.8-4.1,9.1-5.4
		c16.1-6.7,34.5-8.8,50.9-2.8c13.1,4.8,26.9,16.8,30.5,30.8c3.7,14.6-6.9,26.5-14.7,37.8c-10.3,14.8-21,29.4-32,43.7
		c-5.7,7.3-11.5,14.5-17.3,21.7C751.8,1065.6,732.5,1092.7,732.5,1092.7z"/>
	<path opacity="0.75" fill="#FFFFFF" d="M732.5,1092.7c0,0-12.8-89.2-11-133.7c0.3-8.1,0.9-17,6.7-22.6c2.5-2.5,5.8-4.1,9.1-5.4
		c16.1-6.7,34.5-8.8,50.9-2.8c13.1,4.8,26.9,16.8,30.5,30.8c3.7,14.6-6.9,26.5-14.7,37.8c-10.3,14.8-21,29.4-32,43.7
		c-5.7,7.3-11.5,14.5-17.3,21.7C751.8,1065.6,732.5,1092.7,732.5,1092.7z"/>
	<path opacity="0.28" d="M737.2,930.9c31.4-13,50.9-2.8,50.9-2.8c2.8,1.2,27.4,11.3,30.6,30.8c1.3,8.2-13.7,22.2-33.6,51.9
		c0,0-42.5,62.2-46.9,69.3c-4.1,6.6-5.1,11.2-5.7,12.5c16.4-44,35.4-112.3,35.4-112.3c0.7-4.1,1.4-8.2,1.1-12.4
		c-0.6-10.6-7.1-24.2-21.6-28.3s-23.4,3.1-23.4,3.1s2.3-4.6,4.2-6.4C730.7,933.8,733.9,932.2,737.2,930.9z"/>
</g>
<g id="bottom-mouth-highlight">
	<path opacity="0.24" fill="#FFFFFF" d="M901.7,794.6c7.3,4.2,24.6,12.9,47,10.8c9.7-0.9,17.7-3.6,23.6-6.1
		c5.4-2.5,12.5-6.6,19.7-13.1c9.9-9,15.4-18.6,18.3-24.9c-7.2,7.6-22.5,21.8-46.6,30C935.9,800.7,912.1,796.9,901.7,794.6z"/>
</g>
<g id="mouth">
	<g id="Layer_30">
		
			<radialGradient id="SVGID_00000046317211901359319330000001709742544549127578_" cx="773.9254" cy="785.8802" r="118.5694" gradientUnits="userSpaceOnUse">
			<stop  offset="0.4672" style="stop-color:#FFFFFF"/>
			<stop  offset="0.5231" style="stop-color:#FAFAFA"/>
			<stop  offset="0.589" style="stop-color:#ECECEC"/>
			<stop  offset="0.6599" style="stop-color:#D4D4D4"/>
			<stop  offset="0.7345" style="stop-color:#B3B3B3"/>
			<stop  offset="0.8118" style="stop-color:#888888"/>
			<stop  offset="0.8915" style="stop-color:#545454"/>
			<stop  offset="0.9716" style="stop-color:#171717"/>
			<stop  offset="1" style="stop-color:#000000"/>
		</radialGradient>
		<path opacity="0.24" fill="url(#SVGID_00000046317211901359319330000001709742544549127578_)" d="M749,669.9l117.3,104.8
			l-39.9-52.4l-7.1-20.3l-22.1-13.4L786,669.9c0,0-14.8-15.8-25.9-10.2C749,665.4,749,669.9,749,669.9z"/>
	</g>
	<g>
		<path fill="#244E93" d="M826.4,705.3c0,0,44.1,103.8,129.1,82.6c85-21.2,70.3-124.4,70.3-124.4c-4.6,2.6-9.9,5.3-15.8,7.8
			c-7.5,3.2-14.5,5.5-20.8,7.2c-4.2,1.2-12.8,3.2-23.2,0.8c-10.7-2.5-17.4-8.3-21.3-11.7c-8.1-7.2-12.4-15.2-14.6-20.3
			c0,0,2.1,24.5-12.8,39.7c-18.2,18.5-46.8,20-60.3,20.9C844.3,708.5,833.6,706.9,826.4,705.3z"/>
	</g>
	<g>
		
			<linearGradient id="SVGID_00000075162231543484373460000011579818577516431262_" gradientUnits="userSpaceOnUse" x1="924.0973" y1="672.307" x2="938.1643" y2="758.7932">
			<stop  offset="0" style="stop-color:#000000"/>
			<stop  offset="1" style="stop-color:#CBCBCB"/>
		</linearGradient>
		<path fill="url(#SVGID_00000075162231543484373460000011579818577516431262_)" d="M826.4,705.3c0,0,44.1,103.8,129.1,82.6
			c85-21.2,70.3-124.4,70.3-124.4c-4.6,2.6-9.9,5.3-15.8,7.8c-7.5,3.2-14.5,5.5-20.8,7.2c-4.2,1.2-12.8,3.2-23.2,0.8
			c-10.7-2.5-17.4-8.3-21.3-11.7c-8.1-7.2-12.4-15.2-14.6-20.3c0,0,2.1,24.5-12.8,39.7c-18.2,18.5-46.8,20-60.3,20.9
			C844.3,708.5,833.6,706.9,826.4,705.3z"/>
	</g>
	<path fill="none" stroke="#000000" stroke-width="10" stroke-linejoin="round" stroke-miterlimit="10" d="M851.6,704.7
		c-13.5,0.9-24.8-0.9-32.4-2.6c0,0,46.5,112.4,136.2,89.4c89.7-22.9,74.2-134.6,74.2-134.6c-4.9,2.8-10.4,5.7-16.6,8.4"/>
</g>
<g id="tongue-bottom-teeth">
	<g>
		<defs>
			<path id="SVGID_00000069381217501785395630000001038519224523542695_" d="M809.3,667.4c0,0,6.9,18.4,17.3,38.1
				c21.6,41.1,63.8,98.4,129.6,81.6c97.4-24.9,64.1-157,64.1-157L809.3,667.4z"/>
		</defs>
		<clipPath id="SVGID_00000018218559845548950980000007704689550762153378_">
			<use xlink:href="#SVGID_00000069381217501785395630000001038519224523542695_"  overflow="visible"/>
		</clipPath>
		<g clip-path="url(#SVGID_00000018218559845548950980000007704689550762153378_)">
			<path fill="#244E93" d="M935.1,794.7c-30.1,0-53.3-16.8-54.2-17.6l-2.9-2.2l2.3-2.8c7.5-9.4,16.4-17,26.5-22.7
				c8.4-4.7,18.7-9.6,30.4-9.6c2.1,0,4.3,0.2,6.4,0.5c4.1,0.6,8.4,2.5,12.5,4.8c-0.2-1.2-0.1-2.1,0.1-2.9c1-3.9,4.3-6,5.5-6.8
				c2.8-1.8,6.3-2.7,10.5-2.7c14.1,0,33.4,10,38.9,13.1l3.2,1.7l-1.9,3.1c-3.3,5.5-7.1,10.6-11.5,15.2
				c-10.7,11.3-25.5,19.9-43.9,25.5C950.1,793.6,942.7,794.7,935.1,794.7z"/>
			<path d="M972.3,736.3c13.9,0,33.8,10.8,37.2,12.7c-2.3,3.9-5.9,9.1-11,14.6c-8.1,8.5-20.8,18-42.4,24.5c-7.2,2.2-14.3,3.1-21,3.1
				c-29.3,0-52.1-16.9-52.1-16.9c5.8-7.3,14.1-15.4,25.5-21.8c7.2-4,17.2-9.1,28.7-9.1c1.9,0,3.9,0.1,5.9,0.5
				c12.3,1.9,28.1,16.8,28.1,16.8s-13.1-12.8-11.5-17.4c0.7-2.6,3-4.1,4.1-4.8C966,736.9,969,736.3,972.3,736.3 M972.3,729.3
				L972.3,729.3c-4.9,0-9.1,1.1-12.4,3.2c-1.3,0.8-4.8,3.1-6.5,7.3c-3.1-1.4-6.2-2.5-9.2-2.9c-2.3-0.4-4.6-0.5-6.9-0.5
				c-12.6,0-23.3,5.1-32.1,10c-10.5,5.9-19.8,13.8-27.6,23.6l-4.5,5.7l5.8,4.3c1,0.7,25,18.2,56.3,18.2c7.9,0,15.7-1.1,23.1-3.4
				c19-5.8,34.3-14.7,45.4-26.4c4.5-4.8,8.5-10.1,11.9-15.8l3.7-6.2l-6.3-3.5C1005.5,738.8,986.8,729.3,972.3,729.3L972.3,729.3z"/>
		</g>
		<g opacity="0.29" clip-path="url(#SVGID_00000018218559845548950980000007704689550762153378_)">
			
				<linearGradient id="SVGID_00000158714742812527102600000010699671165720612249_" gradientUnits="userSpaceOnUse" x1="962.3823" y1="788.2161" x2="941.3335" y2="753.4855">
				<stop  offset="0" style="stop-color:#F1F1F1"/>
				<stop  offset="1" style="stop-color:#000000"/>
			</linearGradient>
			<path fill="url(#SVGID_00000158714742812527102600000010699671165720612249_)" d="M883,774.3c5.8-7.3,14.1-15.4,25.5-21.8
				c8.4-4.7,20.7-10.9,34.6-8.7c12.3,1.9,28.1,16.8,28.1,16.8s-13.1-12.8-11.5-17.4c0.7-2.6,3-4.1,4.1-4.8
				c12.1-7.8,41.6,8.2,45.9,10.6c-2.3,3.9-5.9,9.1-11,14.6c-8.1,8.5-20.8,18-42.4,24.5C917.5,799.8,883,774.3,883,774.3z"/>
		</g>
		
			<radialGradient id="SVGID_00000155114146909011885170000005071042296881249409_" cx="981.5839" cy="720.35" r="67.1803" gradientTransform="matrix(0.8317 -0.5552 0.5552 0.8317 -260.3599 663.2751)" gradientUnits="userSpaceOnUse">
			<stop  offset="0" style="stop-color:#FFFFFF"/>
			<stop  offset="1" style="stop-color:#FFFFFF;stop-opacity:0"/>
		</radialGradient>
		
			<path opacity="0.43" clip-path="url(#SVGID_00000018218559845548950980000007704689550762153378_)" fill="url(#SVGID_00000155114146909011885170000005071042296881249409_)" d="
			M983.8,775.3c-2.8-5.2-5.6-8.4-7.8-10.4c-0.9-0.9-2-1.8-4.2-3.9c-1.8-1.7-3.5-3.3-5.5-5.7c-1-1.1-2.4-2.8-3.9-5
			c-2.6-3.7-3.3-5.2-2.9-6.5c0.1-0.3,0.3-1.1,0.9-1.4c3.3-1.7,15.9,11.8,21.8,28C983.1,772.6,983.6,774.4,983.8,775.3z"/>
		<g opacity="0.85" clip-path="url(#SVGID_00000018218559845548950980000007704689550762153378_)">
			<g>
				<path fill="#E6D6B8" d="M937.1,799.4c-13.7,0-27.2-9.4-27.8-9.8l-1.3-0.9l10.7-25c1.2-2.7,3.8-4.5,6.8-4.5
					c2.6,0,4.9,1.3,6.2,3.5l20,31.9l-1.6,1.1C946.4,798.1,942,799.4,937.1,799.4C937.1,799.4,937.1,799.4,937.1,799.4z"/>
				<path d="M925.4,761.2c1.7,0,3.5,0.8,4.5,2.5l19,30.3c-3.7,2.4-7.8,3.3-11.9,3.3c-13.2,0-26.7-9.4-26.7-9.4l10.1-23.5
					C921.4,762.3,923.4,761.2,925.4,761.2 M925.4,757.2c-3.8,0-7.2,2.2-8.6,5.7l-10.1,23.5l-1.3,3l2.7,1.9
					c0.6,0.4,14.7,10.1,29,10.1c5.3,0,10.1-1.3,14.1-4l3.3-2.1l-2.1-3.3l-19-30.3C931.7,758.9,928.7,757.2,925.4,757.2L925.4,757.2z
					"/>
			</g>
			<path opacity="0.28" fill="#244E93" d="M916.5,791.5c7.1,0.3,11.1-3.3,13.9-7.6c2.9-4.3-2.1-12.3-5.1-18.9
				c-3-6.6,3.8-2.3,3.8-2.3s17.7,28.6,19.7,31.1l0,0.3c-0.2,0.1-0.3,0.2-0.5,0.3c-2.7,1.4-8.3,3.8-15.2,2.7
				C924.2,795.7,915.9,791.5,916.5,791.5z"/>
		</g>
	</g>
</g>
<g id="upper-teeth">
	<g>
		<g>
			<path fill="#E6D6B8" d="M1003.7,712c-2.5,0-4.8-1.1-6.5-3l-22.6-26.8c-0.5-0.6-0.6-1.4-0.3-2.1c0.3-0.7,1-1.2,1.8-1.2
				c0.3,0,33.6-0.5,41.8-16.3c0.4-0.7,1-1.1,1.8-1.1c0.2,0,0.5,0,0.7,0.1c0.9,0.4,1.5,1.3,1.3,2.3l-9.6,41.4
				C1011.1,709.3,1007.7,712,1003.7,712z"/>
			<path d="M1019.7,663.6L1010,705c-0.7,3.2-3.5,5.1-6.4,5.1c-1.8,0-3.6-0.7-5-2.3l-22.6-26.8
				C976.1,680.9,1010.8,680.6,1019.7,663.6 M1019.7,659.6c-1.5,0-2.8,0.8-3.5,2.1c-6.4,12.2-31.1,15.1-40.1,15.2
				c-1.5,0-2.9,0.9-3.6,2.3s-0.4,3.1,0.6,4.2l22.6,26.8c2,2.4,4.9,3.7,8,3.7c4.9,0,9.2-3.4,10.3-8.2l9.6-41.4c0.5-2-0.6-4-2.5-4.7
				C1020.6,659.7,1020.1,659.6,1019.7,659.6L1019.7,659.6z"/>
		</g>
		<path opacity="0.28" fill="#244E93" d="M1004.3,681.9c-1.7-1.2-5.9-1.4-14.4-1.3c-5,0.1-6.8,0.1-6.9-0.1c0-0.1,8.2-0.8,14.4-2.5
			c6.1-1.7,14-5.4,22.3-14.4c-0.8,3.5-1.5,6.3-1.9,8.1c-3.9,16.7-3.8,15.8-4.1,17.6c-0.8,4.3-3,14.7-3.9,16.6
			c-0.9,1.9-1.9,2.6-2.1,2.8c-1,0.8-2,1.1-2.7,1.2c1.2-3,2.6-7.8,2.8-13.8C1007.8,690.4,1007.9,684.6,1004.3,681.9z"/>
	</g>
	<g>
		<g>
			<path fill="#E6D6B8" d="M886,747.2c-2.3,0-4.5-1.1-5.9-3l-29.5-39.2l4.4,0.4c2.4,0.2,4.9,0.3,7.4,0.3c4,0,8-0.3,12-0.8
				c10.2-1.3,20.1-4.4,29.4-9.1l4.2-2.1l-14.7,48.2C892.2,745.1,889.3,747.2,886,747.2z"/>
			<path d="M904.6,697.6l-13.4,43.7c-0.8,2.5-3,3.9-5.2,3.9c-1.6,0-3.2-0.7-4.3-2.2l-26.9-35.6c2.3,0.2,4.8,0.3,7.5,0.3
				c3.8,0,7.9-0.2,12.3-0.8C887.5,705.2,897.7,701.1,904.6,697.6 M911.2,689.9l-8.4,4.2c-9.1,4.6-18.8,7.6-28.7,8.9
				c-3.9,0.5-7.8,0.8-11.7,0.8c-2.4,0-4.8-0.1-7.2-0.3l-8.9-0.7l5.4,7.1l26.9,35.6c1.8,2.4,4.6,3.8,7.5,3.8c4.2,0,7.8-2.7,9.1-6.7
				l13.4-43.7L911.2,689.9L911.2,689.9z"/>
		</g>
		<path opacity="0.28" fill="#244E93" d="M872.8,707.1c4.7-0.5,10.4-1.5,16.7-3.4c5.9-1.8,11-4,15.1-6L891,741.8
			c-1.1,2.6-3.3,3-3.3,3c1.4-4.2,3.1-11.5,1.1-19.7c-0.6-2.6-1.5-6-4.3-9.4C880.6,711,875,707.6,872.8,707.1z"/>
	</g>
</g>
<g id="upper-cat-lip">
	
		<linearGradient id="SVGID_00000052822357312407264660000008931855916420966571_" gradientUnits="userSpaceOnUse" x1="910.6627" y1="666.623" x2="902.6405" y2="625.0535">
		<stop  offset="0" style="stop-color:#C63B34"/>
		<stop  offset="1" style="stop-color:#C63B34;stop-opacity:0"/>
	</linearGradient>
	<path fill="url(#SVGID_00000052822357312407264660000008931855916420966571_)" d="M749,665.4c6.7-3.7,16.4-7.6,25.7-4.5
		c9.6,3.2,12.9,12.1,19,20.1c15.5,20.4,41.6,25.2,51.7,27.1c27,5,70.6-10.9,81.4-31.9c6-11.5,4.3-24.1,2.4-32.1
		c3,8.8,9.2,21.9,22.4,29.7c25.3,15.1,60.2,1,78.6-18.7c13.3-14.3,17.3-30.8,18.6-38.9c0,0,3.1-12.4,11.7-10.8"/>
	<path opacity="0.4" fill="#4A232B" d="M793.6,681c11.6,4.5,43.3,15,81.7,5.1c27-7,45.4-20.9,54.7-29.2c0.1,4-0.1,14.2-6.7,24.5
		c-8.7,13.6-22.2,17.6-25.5,18.4c-6.5,3-16.3,6.7-28.8,8.2c-14,1.7-25.5-0.1-33-1.8c-5.6-1.1-13.5-3.3-22-8.1
		C804.2,692.4,797.5,685.7,793.6,681z"/>
	<path opacity="0.4" fill="#4A232B" d="M935.5,654.4c7,3.1,30.4,12.3,59.2,4.8c33.2-8.8,49.7-33.8,53.3-39.5
		c-2.8,16.6-15.5,32.1-26.7,41.4c-12.2,10.2-24.4,15.1-32.1,17.5c-3.5,1.1-17.6,4.9-32.9-2.2C943.7,670.4,937.5,658,935.5,654.4z"/>
	<path fill="none" stroke="#000000" stroke-width="6" stroke-linecap="round" stroke-linejoin="round" stroke-miterlimit="10" d="
		M749,665.4c6.7-3.7,16.4-7.6,25.7-4.5c9.6,3.2,12.9,12.1,19,20.1c15.5,20.4,41.6,25.2,51.7,27.1c27,5,70.6-10.9,81.4-31.9
		c6-11.5,4.3-24.1,2.4-32.1c3,8.8,9.2,21.9,22.4,29.7c25.3,15.1,60.2,1,78.6-18.7c13.3-14.3,17.3-30.8,18.6-38.9
		c0,0,3.1-12.4,11.7-10.8"/>
</g>
<g id="eye">
	<g>
		<g>
			<ellipse fill="#3E7A3E" cx="885.6" cy="511.5" rx="107.6" ry="107.5"/>
			<path d="M885.6,407c57.8,0,104.6,46.8,104.6,104.5s-46.8,104.5-104.6,104.5S781,569.2,781,511.5S827.8,407,885.6,407 M885.6,401
				c-29.5,0-57.3,11.5-78.2,32.4c-20.9,20.9-32.4,48.6-32.4,78.1c0,29.5,11.5,57.3,32.4,78.1c20.9,20.9,48.7,32.4,78.2,32.4
				s57.3-11.5,78.2-32.4c20.9-20.9,32.4-48.6,32.4-78.1c0-29.5-11.5-57.3-32.4-78.1C942.9,412.5,915.1,401,885.6,401L885.6,401z"/>
		</g>
		<g>
			
				<radialGradient id="SVGID_00000065036279137089872400000001981250135742949017_" cx="892.2284" cy="624.9514" r="164.2542" gradientTransform="matrix(-0.1398 -0.9902 1.6474 -0.2326 -12.5773 1653.7646)" gradientUnits="userSpaceOnUse">
				<stop  offset="0" style="stop-color:#C0C7C9"/>
				<stop  offset="1" style="stop-color:#101010"/>
			</radialGradient>
			<ellipse fill="url(#SVGID_00000065036279137089872400000001981250135742949017_)" cx="885.6" cy="511.5" rx="104.6" ry="104.5"/>
		</g>
		<circle fill="#244E93" cx="880.9" cy="507.8" r="66.4"/>
		
			<linearGradient id="SVGID_00000055691112681470952510000006235578985867761539_" gradientUnits="userSpaceOnUse" x1="769.1254" y1="437.7538" x2="754.5568" y2="562.6277" gradientTransform="matrix(-1 0 0 1 1633.9563 0)">
			<stop  offset="0" style="stop-color:#FFFFFF"/>
			<stop  offset="1" style="stop-color:#FFFFFF;stop-opacity:0"/>
		</linearGradient>
		<circle fill="url(#SVGID_00000055691112681470952510000006235578985867761539_)" cx="872.2" cy="500.9" r="42.2"/>
	</g>
</g>
<g id="right-front-horn">
	<path fill="#244E93" d="M683.4,410.9c0,0-49.1-40.8-82-88.9s-55.1-117.5-35.2-179.4C516.6,191,501.1,284,529.8,377.4
		c16.5,53.4,44.2,114.6,54.5,123.9c14.9,13.6,47.2,21.4,89.7-19.4S683.4,410.9,683.4,410.9z"/>
	<path opacity="0.75" fill="#FFFFFF" d="M683.4,410.9c0,0-49.1-40.8-82-88.9s-55.1-117.5-35.2-179.4
		C516.6,191,501.1,284,529.8,377.4c16.5,53.4,44.2,114.6,54.5,123.9c14.9,13.6,47.2,21.4,89.7-19.4S683.4,410.9,683.4,410.9z"/>
	<g>
		<path opacity="0.28" d="M583.8,501C583.4,500.6,583.3,500.7,583.8,501L583.8,501z"/>
		<path opacity="0.28" d="M656.6,398.5c-14.9-13.8-39.5-37.7-68.6-82.4c-24.4-37.5-36.5-80.6-33.2-123.6c0-16.8,2.4-33.6,7.8-49.9
			c0,0,0,0,0,0c-1.6,4.2-11.8,16.7-18.2,42.5c-3.3,13.3-5.9,37.4-5.3,50.5c1.9,38.7,10.1,76.9,33.1,117.6s56.6,89.5,56.6,89.5
			s16.1,20.4,6.5,39.7c-9.6,19.3-27.4,22.1-34.6,21.7c-11-0.6-15.6-2.5-16.9-3.1c0.1,0.1,0.3,0.2,0.5,0.4
			c15.3,13.6,44.7,22.7,88.4-18.1c19.5-18.2,23.7-34.6,22.3-47.2C686.1,422.7,668.7,409.7,656.6,398.5z"/>
	</g>
</g>
<g id="right-side-horn">
	<path fill="#244E93" d="M560.2,547.7c-2.4,19-19.6,32-32.9,37c-36.1,13.7-81.6-23.4-102.5-48.9c-40.7-49.9-33.6-112.2-31.2-128.6
		c14.4,44.8,35.7,63.7,52,72.7c41.7,23,86.4,1.4,107.3,30.3C564.6,526.1,560.4,546.1,560.2,547.7z"/>
	<path opacity="0.75" fill="#FFFFFF" d="M560.2,547.7c-2.4,19-19.6,32-32.9,37c-36.1,13.7-81.6-23.4-102.5-48.9
		c-40.7-49.9-33.6-112.2-31.2-128.6c14.4,44.8,35.7,63.7,52,72.7c41.7,23,86.4,1.4,107.3,30.3C564.6,526.1,560.4,546.1,560.2,547.7z
		"/>
	<path opacity="0.28" d="M560.9,529.7c0-5.5-2-14.2-7.6-21.3c-2-2.5-4.2-4.5-6.5-6c-1.8-0.1-37-4.8-50.6-4.8
		c-4.7,0-19.8-0.4-34.5-5.6c-20-7.1-32-20.4-39.3-28.6c-17.5-19.4-28.3-57.5-28.4-57.9c0,0,0,0,0,0c0,0,0,0,0,0
		c-0.2,1.3-0.4,2.8-0.6,4.6c2,11.5,5.8,26.9,13.5,43.7c6.4,13.9,17.8,38.7,42.1,57.4c29.6,22.6,55.9,18,62.9,38.9
		c0.9,2.8,3.8,13-1.3,20c-4.9,6.6-14.9,7.5-21.7,8.2c-5.5,0.5-10.2,0.1-13.4-0.4c3,1.6,22.2,11.9,39.7,10c6.5-0.7,12.6-3.1,12.6-3.1
		c2.2-0.8,7.8-3,14.3-8c3.5-2.7,5.9-5.2,7-6.4c2.2-2.4,5.8-6.4,8.4-12.5c0.5-1.1,1.5-3.6,2.3-7c0,0,0,0,0,0c0,0,0.7-2.7,1.2-5.7
		C561.9,537.4,560.9,529.7,560.9,529.7z"/>
</g>
<g id="guides">
</g>
</svg>
