<?xml version="1.0" encoding="UTF-8" ?>
<svg xmlns="http://www.w3.org/2000/svg" width="128pt" height="128pt" viewBox="0 0 128 128">
  <path d="M 11.04 21.02 C 15.47 12.24 26.17 8.42 35.52 9.52 C 40.55 10.92 45.58 12.34 50.76 13.08 C 52.10 13.35 53.44 13.64 54.77 13.94 C 52.60 19.10 46.49 18.13 42.04 17.41 C 35.24 16.35 26.62 17.32 23.00 24.03 C 20.71 29.06 20.63 35.57 23.67 40.31 C 26.04 42.74 29.74 41.80 32.32 40.25 C 36.69 38.33 37.78 33.19 41.14 30.16 C 46.76 24.34 56.51 20.65 63.88 25.41 C 65.13 25.92 66.36 27.24 67.81 26.75 C 72.44 25.41 77.46 24.22 82.21 25.68 C 89.16 29.22 93.60 35.95 98.79 41.54 C 102.26 40.71 105.84 38.76 106.71 35.01 C 107.75 30.28 108.06 24.27 104.36 20.57 C 99.52 17.08 93.17 18.91 87.67 17.65 C 85.83 17.05 84.89 15.25 84.17 13.59 C 87.84 13.76 91.88 14.36 95.05 12.02 C 103.15 6.64 115.78 10.32 118.68 19.90 C 120.72 29.30 121.25 40.13 115.18 48.22 C 111.80 52.89 105.85 54.26 100.43 54.70 C 100.17 54.97 99.67 55.52 99.41 55.79 C 98.30 54.16 96.95 52.71 95.56 51.31 C 93.04 48.97 89.68 47.94 86.83 46.10 C 84.78 44.54 83.40 42.29 81.55 40.51 C 79.51 39.43 77.38 38.56 75.25 37.68 C 74.42 38.85 73.59 40.02 72.70 41.14 C 71.53 41.74 70.32 42.28 69.13 42.84 C 69.37 44.48 68.85 45.95 67.85 47.23 C 67.83 46.88 67.79 46.19 67.76 45.84 C 67.78 45.38 67.81 44.48 67.83 44.03 C 64.94 42.89 61.77 42.12 59.72 39.58 C 55.55 40.59 51.23 40.32 46.98 40.12 C 43.64 39.83 40.60 41.39 38.01 43.34 C 31.88 47.78 28.09 54.85 27.39 62.36 L 27.28 62.62 C 25.56 67.45 21.95 71.28 20.27 76.13 C 23.52 75.73 26.86 75.18 29.62 73.30 C 30.06 73.02 30.92 72.46 31.35 72.18 C 30.58 81.64 31.71 91.79 37.28 99.76 C 38.68 101.70 40.34 103.43 42.11 105.03 C 44.47 106.15 47.09 106.44 49.65 106.72 C 50.70 106.86 51.76 107.02 52.81 107.18 C 56.09 107.79 59.43 107.87 62.72 107.25 C 62.41 108.27 61.80 110.32 61.49 111.34 C 61.59 110.38 61.79 108.46 61.89 107.50 C 57.78 111.53 51.91 108.48 46.99 108.36 C 41.59 108.44 37.61 104.24 34.93 100.03 C 30.30 92.72 29.22 83.81 29.42 75.32 C 28.31 75.76 27.18 76.16 26.04 76.51 C 23.54 76.93 21.01 77.18 18.49 77.47 C 20.03 71.58 25.24 67.39 25.96 61.14 C 18.03 60.41 11.43 54.23 9.57 46.59 C 7.52 38.26 7.18 28.90 11.04 21.02 M 24.96 11.62 C 19.47 12.68 14.52 16.21 12.19 21.36 L 11.96 21.34 C 11.49 22.84 11.00 24.34 10.67 25.89 C 10.19 28.12 9.61 30.49 10.29 32.74 C 11.73 34.90 14.27 35.97 16.79 35.19 C 16.94 32.13 17.02 29.07 17.00 26.00 C 17.38 24.59 17.68 23.15 17.98 21.71 C 20.75 17.71 25.61 16.22 30.17 15.41 C 33.99 14.97 37.81 14.42 41.66 14.27 C 41.64 13.83 41.59 12.96 41.57 12.52 C 36.13 11.37 30.48 10.30 24.96 11.62 M 98.88 12.67 C 95.24 14.11 91.45 15.04 87.51 15.11 C 91.80 16.59 96.37 15.58 100.80 15.81 C 102.69 16.45 104.68 16.60 106.67 16.66 C 107.06 15.26 107.45 13.85 107.85 12.44 C 104.87 12.06 101.78 11.57 98.88 12.67 M 47.51 27.70 C 44.72 28.79 43.11 32.30 45.30 34.75 C 47.93 34.72 49.77 32.52 51.86 31.22 C 54.59 31.22 57.31 30.84 60.01 30.41 C 61.47 29.67 62.87 28.81 64.27 27.97 C 62.58 27.05 60.91 26.00 59.00 25.61 C 54.99 24.42 51.03 25.77 47.51 27.70 M 71.17 28.31 C 76.14 27.20 80.50 29.96 84.92 31.71 C 85.42 32.20 86.41 33.19 86.91 33.68 C 85.03 30.48 82.16 27.62 78.40 26.88 C 75.87 26.19 73.50 27.54 71.17 28.31 M 64.88 35.61 C 64.74 36.61 65.13 37.09 66.05 37.04 C 66.97 36.30 67.46 35.39 67.52 34.33 C 66.40 34.10 65.52 34.53 64.88 35.61 M 66.39 41.96 L 66.33 40.65 C 67.85 40.36 69.28 39.78 70.10 38.39 C 71.10 38.57 72.08 38.76 73.07 38.97 C 73.10 38.44 73.16 37.40 73.19 36.88 C 74.31 35.06 70.44 33.88 70.08 35.82 C 68.54 36.61 67.38 37.89 66.68 39.48 C 66.07 39.02 64.84 38.11 64.23 37.65 L 64.18 39.75 C 63.43 38.08 62.72 36.40 62.00 34.73 C 60.77 38.04 62.85 41.48 66.39 41.96 Z"/>
  <path d="M79.35 43.95C79.13 45.95 78.76 47.94 78.38 49.93 78.96 50.39 79.54 50.84 80.13 51.29 81.9 50.52 83.81 50.4 85.65 50.93 85.77 51.58 85.99 52.88 86.1 53.53 85.54 52.89 84.42 51.63 83.86 51 83.1 52.45 82.29 53.89 81.28 55.19 80.54 52.59 79.52 51.63 78.76 53.91 79.22 54.38 80.14 55.31 80.6 55.78 83.46 58.71 85.1 62.49 86.82 66.14 87.21 66.4 87.98 66.92 88.37 67.18 90.36 68.35 93.05 66.6 94.75 68.65 93.73 68.62 91.68 68.56 90.66 68.53 89.09 68.41 87.53 68.15 85.97 67.88 85.48 66.31 84.97 64.75 84.37 63.23 84.12 62.72 83.63 61.71 83.38 61.21 82.17 59.32 80.65 57.66 79.19 55.96 78.5 54.57 77.96 53.11 77.52 51.63 77.89 49.01 78.56 46.46 79.35 43.95zM56.25 50.64C59 50.78 61.75 50.85 64.5 50.79L64.55 51.08C64.01 52.77 63.72 54.78 62 55.74 60.86 54.89 60.19 53.63 59.46 52.45 58.63 52.55 56.97 52.76 56.14 52.87 56.84 54.09 57.56 55.29 58.32 56.48 60.28 56.77 62.23 57.1 64.2 57.33L63.89 57.42C60.81 57.67 57.91 56.49 55.12 55.37 55.44 53.78 55.81 52.2 56.25 50.64zM39.43 66.64C44.52 63.04 47.86 57.67 49.89 51.86L49.84 53.38C49.51 57.71 50.05 62.03 50.63 66.31 49.58 64.12 48.77 61.83 48.12 59.49 46.87 61.28 45.6 63.07 44.15 64.72 42.06 66.5 39.76 68.06 37.25 69.2 36.62 69.43 35.36 69.9 34.74 70.14 36.33 69.01 37.89 67.84 39.43 66.64z"/>
  <path d="M84.49 57.75C87.18 60.15 89.9 62.57 93.05 64.36 96.75 65.78 100.86 66.42 104.69 65.05L104.92 63.84C105.5 64.59 106.08 65.35 106.65 66.1 106.01 66.43 104.73 67.09 104.09 67.43 98.26 68.16 92.92 65.69 87.44 64.24 86.62 62.01 85.52 59.89 84.49 57.75zM66.18 67.14C68.32 65.29 71.04 65.3 73.63 66.07L74.26 66.19C76.69 67.46 79.13 68.74 81.33 70.38 81.74 70.76 82.57 71.52 82.98 71.91 81.74 71.16 80.51 70.4 79.26 69.68 77.75 68.92 76.2 68.25 74.61 67.66 72.79 67.15 70.9 66.43 68.97 66.79 66.6 67.44 66.83 70.31 66.26 72.22 66.3 70.53 66.34 68.83 66.18 67.14z"/>
  <path d="M70.3 70.46C72.55 71.49 74.59 72.92 76.44 74.57 75.87 74.28 74.73 73.71 74.16 73.42 73.45 73.51 72.04 73.68 71.33 73.77 70.98 72.67 70.63 71.56 70.3 70.46zM41.4 72.65C42.22 74.96 42.73 77.38 43.57 79.69 43.96 80.57 44.37 81.44 44.79 82.3 46.3 82.83 47.8 83.38 49.27 84.03 50.15 85 50.98 86.02 51.82 87.03 51.08 87.97 50.45 88.97 49.92 90.04 50.09 93.01 53.86 93.84 55.42 96.12 53.19 95.06 51.04 93.87 48.86 92.73 49.2 90.75 49.63 88.79 50.13 86.85 49.09 85.61 48.04 84.39 46.98 83.17 46.4 83.19 45.24 83.23 44.66 83.24 44.36 82.73 43.75 81.71 43.44 81.21 42.08 78.56 40.94 75.69 41.4 72.65zM80.7 103.12C81.03 102.47 81.69 101.17 82.02 100.53 81.97 102.62 82.48 105.08 80.7 106.65 77.49 109.97 75.34 114.07 74.13 118.51 74.13 115.31 74.77 112.15 76.37 109.36 77.68 107.61 79.16 106 80.7 104.44 80.7 104.11 80.7 103.45 80.7 103.12z"/>
  <path fill="#4b4b4b" d="M24.96 11.62C30.48 10.3 36.13 11.37 41.57 12.52 41.59 12.96 41.64 13.83 41.66 14.27 37.81 14.42 33.99 14.97 30.17 15.41 30.34 14.2 30.51 12.98 30.68 11.77 28.78 11.7 26.87 11.61 24.96 11.62zM84.19 56.16C84.25 54.86 84.93 54.22 86.23 54.25 86.38 55.69 85.7 56.33 84.19 56.16z"/>
  <path fill="#818181" d="M 12.19 21.36 C 14.52 16.21 19.47 12.68 24.96 11.62 C 26.87 11.61 28.78 11.70 30.68 11.77 C 30.51 12.98 30.34 14.20 30.17 15.41 C 25.61 16.22 20.75 17.71 17.98 21.71 C 16.05 21.61 14.12 21.49 12.19 21.36 Z"/>
  <path fill="#292929" d="M 98.88 12.67 C 101.78 11.57 104.87 12.06 107.85 12.44 C 107.45 13.85 107.06 15.26 106.67 16.66 C 104.68 16.60 102.69 16.45 100.80 15.81 C 101.51 15.06 102.21 14.31 102.92 13.55 C 101.58 13.25 100.23 12.94 98.88 12.67 Z"/>
  <path d="M 50.76 13.08 C 53.20 12.67 56.55 13.13 55.48 16.40 C 52.96 18.65 49.56 20.14 46.16 19.26 C 39.38 18.03 30.88 17.10 25.71 22.67 C 21.32 27.47 22.63 34.50 23.67 40.31 C 20.63 35.57 20.71 29.06 23.00 24.03 C 26.62 17.32 35.24 16.35 42.04 17.41 C 46.49 18.13 52.60 19.10 54.77 13.94 C 53.44 13.64 52.10 13.35 50.76 13.08 Z" opacity=".45"/>
  <path fill="#6f6f6f" d="M 87.51 15.11 C 91.45 15.04 95.24 14.11 98.88 12.67 C 100.23 12.94 101.58 13.25 102.92 13.55 C 102.21 14.31 101.51 15.06 100.80 15.81 C 96.37 15.58 91.80 16.59 87.51 15.11 Z"/>
  <path d="M 87.67 17.65 C 93.17 18.91 99.52 17.08 104.36 20.57 C 100.33 19.77 96.22 19.56 92.12 19.45 C 90.44 19.48 88.95 18.67 87.67 17.65 Z" opacity=".39"/>
  <path fill="#070602" d="M 118.68 19.90 C 120.73 22.10 120.66 25.26 120.80 28.06 C 120.99 34.81 121.25 42.18 117.08 47.93 C 113.68 53.25 107.44 55.95 101.25 55.78 C 101.91 58.71 103.59 61.20 104.92 63.84 L 104.69 65.05 C 102.41 62.28 100.82 59.07 99.41 55.79 C 99.67 55.52 100.17 54.97 100.43 54.70 C 105.85 54.26 111.80 52.89 115.18 48.22 C 121.25 40.13 120.72 29.30 118.68 19.90 Z" opacity=".52"/>
  <path fill="#626262" d="M 11.96 21.34 L 12.19 21.36 C 14.12 21.49 16.05 21.61 17.98 21.71 C 17.68 23.15 17.38 24.59 17.00 26.00 C 15.52 27.71 13.28 28.24 11.23 28.91 C 11.09 28.15 10.81 26.64 10.67 25.89 C 11.00 24.34 11.49 22.84 11.96 21.34 Z"/>
  <path fill="#616161" d="M 47.51 27.70 C 51.03 25.77 54.99 24.42 59.00 25.61 C 57.28 25.69 55.57 25.84 53.85 25.99 C 55.27 28.27 56.82 31.04 60.01 30.41 C 57.31 30.84 54.59 31.22 51.86 31.22 C 51.40 31.21 50.49 31.18 50.03 31.16 C 49.16 30.03 48.34 28.86 47.51 27.70 Z"/>
  <path fill="#383838" d="M 10.29 32.74 C 9.61 30.49 10.19 28.12 10.67 25.89 C 10.81 26.64 11.09 28.15 11.23 28.91 C 13.28 28.24 15.52 27.71 17.00 26.00 C 17.02 29.07 16.94 32.13 16.79 35.19 C 14.27 35.97 11.73 34.90 10.29 32.74 Z"/>
  <path fill="#9b9b9b" d="M53.85 25.99C55.57 25.84 57.28 25.69 59 25.61 60.91 26 62.58 27.05 64.27 27.97 62.87 28.81 61.47 29.67 60.01 30.41 56.82 31.04 55.27 28.27 53.85 25.99zM71.17 28.31C73.5 27.54 75.87 26.19 78.4 26.88 82.16 27.62 85.03 30.48 86.91 33.68 86.41 33.19 85.42 32.2 84.92 31.71 80.5 29.96 76.14 27.2 71.17 28.31z"/>
  <path fill="#252525" d="M 45.30 34.75 C 43.11 32.30 44.72 28.79 47.51 27.70 C 48.34 28.86 49.16 30.03 50.03 31.16 C 50.49 31.18 51.40 31.21 51.86 31.22 C 49.77 32.52 47.93 34.72 45.30 34.75 Z"/>
  <g fill="#fcf3c7">
    <path d="M 64.88 35.61 C 65.52 34.53 66.40 34.10 67.52 34.33 C 67.46 35.39 66.97 36.30 66.05 37.04 C 65.13 37.09 64.74 36.61 64.88 35.61 Z"/>
    <path d="M66.39 41.96C62.85 41.48 60.77 38.04 62 34.73 62.72 36.4 63.43 38.08 64.18 39.75L64.23 37.65C64.84 38.11 66.07 39.02 66.68 39.48 67.38 37.89 68.54 36.61 70.08 35.82 70.93 36.75 71.96 37.1 73.19 36.88 73.16 37.4 73.1 38.44 73.07 38.97 72.08 38.76 71.1 38.57 70.1 38.39 69.28 39.78 67.85 40.36 66.33 40.65L66.39 41.96zM56.14 52.87C56.97 52.76 58.63 52.55 59.46 52.45 60.19 53.63 60.86 54.89 62 55.74 63.72 54.78 64.01 52.77 64.55 51.08 65.03 52.94 65.58 54.79 66.13 56.64 65.65 56.81 64.69 57.15 64.2 57.33 62.23 57.1 60.28 56.77 58.32 56.48 57.56 55.29 56.84 54.09 56.14 52.87zM78.76 53.91C79.52 51.63 80.54 52.59 81.28 55.19 82.29 53.89 83.1 52.45 83.86 51 84.42 51.63 85.54 52.89 86.1 53.53L86.23 54.25C84.93 54.22 84.25 54.86 84.19 56.16 83.3 56.06 81.5 55.87 80.6 55.78 80.14 55.31 79.22 54.38 78.76 53.91zM88.6 76.71C90.35 75.75 92.12 74.82 93.99 74.11L94.37 74.51C91.81 76.22 89.38 78.1 86.96 79.99 85.98 80.69 84.97 81.35 83.95 82 84.85 79.74 86.53 77.95 88.6 76.71zM76.63 84.57C80.81 81.85 85.7 84.07 90.23 82.99 90.85 83.56 92.09 84.69 92.71 85.26 90.18 87.37 86.92 86.24 83.97 86.32 79.45 86.13 75.3 88.56 70.75 88.29 71.44 87.78 72.13 87.29 72.83 86.81 74.08 86.04 75.34 85.27 76.63 84.57z"/>
  </g>
  <path fill="#7c7c7c" d="M 70.08 35.82 C 70.44 33.88 74.31 35.06 73.19 36.88 C 71.96 37.10 70.93 36.75 70.08 35.82 Z"/>
  <path fill="#d2a958" d="M 75.25 37.68 C 77.38 38.56 79.51 39.43 81.55 40.51 C 80.81 41.66 80.08 42.80 79.35 43.95 C 77.11 43.07 74.89 42.14 72.70 41.14 C 73.59 40.02 74.42 38.85 75.25 37.68 Z"/>
  <path fill="#efcb82" d="M 46.98 40.12 C 51.23 40.32 55.55 40.59 59.72 39.58 C 61.77 42.12 64.94 42.89 67.83 44.03 C 67.81 44.48 67.78 45.38 67.76 45.84 C 66.87 45.64 65.07 45.26 64.18 45.07 C 64.21 45.40 64.28 46.06 64.31 46.39 C 60.95 44.72 58.58 47.53 56.76 50.00 C 56.63 50.16 56.38 50.48 56.25 50.64 C 55.81 52.20 55.44 53.78 55.12 55.37 C 57.91 56.49 60.81 57.67 63.89 57.42 C 64.66 60.66 65.44 63.90 66.18 67.14 C 66.34 68.83 66.30 70.53 66.26 72.22 C 66.83 70.31 66.60 67.44 68.97 66.79 C 70.90 66.43 72.79 67.15 74.61 67.66 C 73.18 68.61 71.75 69.55 70.30 70.46 C 70.63 71.56 70.98 72.67 71.33 73.77 C 73.29 77.94 69.35 83.30 72.83 86.81 C 72.13 87.29 71.44 87.78 70.75 88.29 C 67.27 84.68 64.25 80.68 61.40 76.56 C 63.04 80.93 66.08 84.53 69.08 88.02 C 67.08 92.07 67.74 96.62 67.75 100.96 C 67.78 105.97 67.81 110.98 67.30 115.97 C 66.78 115.48 65.76 114.50 65.24 114.02 C 64.38 111.65 63.69 109.23 62.63 106.94 C 62.87 106.57 63.36 105.83 63.61 105.46 C 60.18 104.17 57.23 101.96 54.45 99.63 C 54.89 100.78 55.34 101.93 55.79 103.08 C 55.21 102.81 54.05 102.28 53.47 102.01 C 53.62 100.71 53.78 99.41 53.94 98.12 C 54.31 97.62 55.05 96.62 55.42 96.12 C 53.86 93.84 50.09 93.01 49.92 90.04 C 50.45 88.97 51.08 87.97 51.82 87.03 C 50.98 86.02 50.15 85.00 49.27 84.03 C 50.23 82.50 51.18 80.85 50.99 78.95 C 50.97 74.74 51.09 70.50 50.63 66.31 C 50.05 62.03 49.51 57.71 49.84 53.38 C 51.02 48.86 50.63 43.43 46.98 40.12 Z"/>
  <path fill="#ecc468" d="M 38.01 43.34 C 40.60 41.39 43.64 39.83 46.98 40.12 C 50.63 43.43 51.02 48.86 49.84 53.38 L 49.89 51.86 C 47.86 57.67 44.52 63.04 39.43 66.64 C 39.68 63.96 39.61 61.16 40.64 58.63 C 43.44 55.04 48.72 53.50 49.65 48.51 C 45.27 49.01 42.68 52.87 39.22 55.12 C 39.14 51.17 38.89 47.20 38.01 43.34 Z"/>
  <path fill="#e3be73" d="M 69.13 42.84 C 70.32 42.28 71.53 41.74 72.70 41.14 C 74.89 42.14 77.11 43.07 79.35 43.95 C 78.56 46.46 77.89 49.01 77.52 51.63 C 75.30 51.31 73.08 51.01 70.85 50.73 C 71.23 52.76 71.48 54.84 72.33 56.74 C 74.60 57.98 77.02 56.81 79.19 55.96 C 80.65 57.66 82.17 59.32 83.38 61.21 C 79.99 61.45 76.57 61.54 73.20 62.07 C 73.30 63.41 73.47 64.74 73.63 66.07 C 71.04 65.30 68.32 65.29 66.18 67.14 C 65.44 63.90 64.66 60.66 63.89 57.42 L 64.20 57.33 C 64.69 57.15 65.65 56.81 66.13 56.64 C 65.58 54.79 65.03 52.94 64.55 51.08 L 64.50 50.79 C 61.75 50.85 59.00 50.78 56.25 50.64 C 56.38 50.48 56.63 50.16 56.76 50.00 C 59.39 49.91 62.03 49.94 64.67 49.94 C 64.55 48.75 64.43 47.57 64.31 46.39 C 64.28 46.06 64.21 45.40 64.18 45.07 C 65.07 45.26 66.87 45.64 67.76 45.84 C 67.79 46.19 67.83 46.88 67.85 47.23 C 68.85 45.95 69.37 44.48 69.13 42.84 Z"/>
  <path fill="#c09339" d="M 81.55 40.51 C 83.40 42.29 84.78 44.54 86.83 46.10 C 89.68 47.94 93.04 48.97 95.56 51.31 C 95.65 54.78 96.13 58.26 95.67 61.72 C 94.88 62.67 93.94 63.49 93.05 64.36 C 89.90 62.57 87.18 60.15 84.49 57.75 C 85.52 59.89 86.62 62.01 87.44 64.24 C 87.67 64.98 88.14 66.45 88.37 67.18 C 87.98 66.92 87.21 66.40 86.82 66.14 C 85.10 62.49 83.46 58.71 80.60 55.78 C 81.50 55.87 83.30 56.06 84.19 56.16 C 85.70 56.33 86.38 55.69 86.23 54.25 L 86.10 53.53 C 85.99 52.88 85.77 51.58 85.65 50.93 C 83.81 50.40 81.90 50.52 80.13 51.29 C 79.54 50.84 78.96 50.39 78.38 49.93 C 78.76 47.94 79.13 45.95 79.35 43.95 C 80.08 42.80 80.81 41.66 81.55 40.51 Z"/>
  <path fill="#e8bb4d" d="M 27.39 62.36 C 28.09 54.85 31.88 47.78 38.01 43.34 C 38.89 47.20 39.14 51.17 39.22 55.12 C 42.68 52.87 45.27 49.01 49.65 48.51 C 48.72 53.50 43.44 55.04 40.64 58.63 C 39.61 61.16 39.68 63.96 39.43 66.64 C 37.89 67.84 36.33 69.01 34.74 70.14 C 33.59 70.80 32.46 71.47 31.35 72.18 C 30.92 72.46 30.06 73.02 29.62 73.30 C 29.29 69.67 29.83 65.59 27.28 62.62 C 32.23 62.65 37.04 60.31 40.33 56.66 C 36.80 57.14 33.54 60.43 29.93 58.70 C 29.06 59.90 28.20 61.11 27.39 62.36 Z"/>
  <path fill="#f6e6a5" d="M 56.76 50.00 C 58.58 47.53 60.95 44.72 64.31 46.39 C 64.43 47.57 64.55 48.75 64.67 49.94 C 62.03 49.94 59.39 49.91 56.76 50.00 Z"/>
  <path fill="#d7aa4d" d="M 70.85 50.73 C 73.08 51.01 75.30 51.31 77.52 51.63 C 77.96 53.11 78.50 54.57 79.19 55.96 C 77.02 56.81 74.60 57.98 72.33 56.74 C 71.48 54.84 71.23 52.76 70.85 50.73 Z"/>
  <path fill="#cea044" d="M 95.56 51.31 C 96.95 52.71 98.30 54.16 99.41 55.79 C 100.82 59.07 102.41 62.28 104.69 65.05 C 100.86 66.42 96.75 65.78 93.05 64.36 C 93.94 63.49 94.88 62.67 95.67 61.72 C 96.13 58.26 95.65 54.78 95.56 51.31 Z"/>
  <path fill="#f4d464" d="M 29.93 58.70 C 33.54 60.43 36.80 57.14 40.33 56.66 C 37.04 60.31 32.23 62.65 27.28 62.62 L 27.39 62.36 C 28.20 61.11 29.06 59.90 29.93 58.70 Z"/>
  <path fill="#edc773" d="M 44.15 64.72 C 45.60 63.07 46.87 61.28 48.12 59.49 C 48.77 61.83 49.58 64.12 50.63 66.31 C 51.09 70.50 50.97 74.74 50.99 78.95 C 51.18 80.85 50.23 82.50 49.27 84.03 C 47.80 83.38 46.30 82.83 44.79 82.30 C 44.37 81.44 43.96 80.57 43.57 79.69 C 45.57 74.91 45.28 69.67 44.15 64.72 Z"/>
  <path fill="#edd99d" d="M 73.20 62.07 C 76.57 61.54 79.99 61.45 83.38 61.21 C 83.63 61.71 84.12 62.72 84.37 63.23 C 81.56 65.65 77.68 65.40 74.26 66.19 L 73.63 66.07 C 73.47 64.74 73.30 63.41 73.20 62.07 Z"/>
  <path fill="#e4b230" d="M 20.27 76.13 C 21.95 71.28 25.56 67.45 27.28 62.62 C 29.83 65.59 29.29 69.67 29.62 73.30 C 26.86 75.18 23.52 75.73 20.27 76.13 Z"/>
  <path fill="#f8f0c4" d="M 74.26 66.19 C 77.68 65.40 81.56 65.65 84.37 63.23 C 84.97 64.75 85.48 66.31 85.97 67.88 C 85.66 68.34 85.03 69.27 84.72 69.73 C 83.87 69.89 82.18 70.22 81.33 70.38 C 79.13 68.74 76.69 67.46 74.26 66.19 Z"/>
  <path fill="#eabd6d" d="M 37.25 69.20 C 39.76 68.06 42.06 66.50 44.15 64.72 C 45.28 69.67 45.57 74.91 43.57 79.69 C 42.73 77.38 42.22 74.96 41.40 72.65 C 40.94 75.69 42.08 78.56 43.44 81.21 C 40.67 88.85 42.98 97.11 42.11 105.03 C 40.34 103.43 38.68 101.70 37.28 99.76 C 37.04 89.58 36.85 79.39 37.25 69.20 Z"/>
  <path fill="#d7af60" d="M 74.61 67.66 C 76.20 68.25 77.75 68.92 79.26 69.68 C 77.04 71.38 77.54 73.81 78.29 76.09 C 77.59 78.88 77.02 81.71 76.63 84.57 C 75.34 85.27 74.08 86.04 72.83 86.81 C 69.35 83.30 73.29 77.94 71.33 73.77 C 72.04 73.68 73.45 73.51 74.16 73.42 C 74.73 73.71 75.87 74.28 76.44 74.57 C 74.59 72.92 72.55 71.49 70.30 70.46 C 71.75 69.55 73.18 68.61 74.61 67.66 Z"/>
  <path fill="#c29740" d="M 85.97 67.88 C 87.53 68.15 89.09 68.41 90.66 68.53 C 88.44 70.73 88.25 73.78 88.60 76.71 C 86.53 77.95 84.85 79.74 83.95 82.00 C 84.97 81.35 85.98 80.69 86.96 79.99 C 88.05 80.99 89.14 81.99 90.23 82.99 C 85.70 84.07 80.81 81.85 76.63 84.57 C 77.02 81.71 77.59 78.88 78.29 76.09 C 77.54 73.81 77.04 71.38 79.26 69.68 C 80.51 70.40 81.74 71.16 82.98 71.91 C 82.57 71.52 81.74 70.76 81.33 70.38 C 82.18 70.22 83.87 69.89 84.72 69.73 C 85.03 69.27 85.66 68.34 85.97 67.88 Z"/>
  <path fill="#a77615" d="M 90.66 68.53 C 91.68 68.56 93.73 68.62 94.75 68.65 C 94.43 70.46 94.37 72.31 93.99 74.11 C 92.12 74.82 90.35 75.75 88.60 76.71 C 88.25 73.78 88.44 70.73 90.66 68.53 Z"/>
  <path fill="#edc77d" d="M 34.74 70.14 C 35.36 69.90 36.62 69.43 37.25 69.20 C 36.85 79.39 37.04 89.58 37.28 99.76 C 31.71 91.79 30.58 81.64 31.35 72.18 C 32.46 71.47 33.59 70.80 34.74 70.14 Z"/>
  <path d="M 94.89 69.75 C 97.13 71.12 96.21 73.95 96.38 76.10 C 94.33 77.77 92.12 79.41 90.99 81.89 C 92.86 83.25 93.89 85.14 93.51 87.47 C 92.46 88.19 91.42 88.91 90.38 89.63 C 90.56 91.60 90.74 93.56 90.91 95.53 C 90.46 95.16 89.57 94.43 89.12 94.06 L 89.44 94.00 C 89.39 92.10 89.30 90.21 89.23 88.31 C 84.14 87.14 79.05 88.21 74.17 89.73 C 72.31 89.79 70.49 89.32 69.08 88.02 C 66.08 84.53 63.04 80.93 61.40 76.56 C 64.25 80.68 67.27 84.68 70.75 88.29 C 75.30 88.56 79.45 86.13 83.97 86.32 C 86.92 86.24 90.18 87.37 92.71 85.26 C 92.09 84.69 90.85 83.56 90.23 82.99 C 89.14 81.99 88.05 80.99 86.96 79.99 C 89.38 78.10 91.81 76.22 94.37 74.51 L 94.83 74.23 C 94.85 72.73 94.82 71.24 94.89 69.75 Z" opacity=".89"/>
  <path d="M 18.49 77.47 C 21.01 77.18 23.54 76.93 26.04 76.51 C 25.12 79.75 20.68 78.94 18.49 77.47 Z" opacity=".34"/>
  <path fill="#e4af58" d="M 43.44 81.21 C 43.75 81.71 44.36 82.73 44.66 83.24 C 45.24 83.23 46.40 83.19 46.98 83.17 C 48.04 84.39 49.09 85.61 50.13 86.85 C 49.63 88.79 49.20 90.75 48.86 92.73 C 51.04 93.87 53.19 95.06 55.42 96.12 C 55.05 96.62 54.31 97.62 53.94 98.12 C 53.57 97.64 52.83 96.68 52.46 96.20 C 51.61 99.36 52.01 102.61 52.77 105.74 C 51.99 105.98 50.43 106.47 49.65 106.72 C 47.09 106.44 44.47 106.15 42.11 105.03 C 42.98 97.11 40.67 88.85 43.44 81.21 Z"/>
  <path fill="#f3d793" d="M 74.17 89.73 C 79.05 88.21 84.14 87.14 89.23 88.31 C 89.30 90.21 89.39 92.10 89.44 94.00 L 89.12 94.06 C 87.68 94.20 86.24 94.23 84.80 94.16 C 82.34 93.91 79.87 94.02 77.42 94.19 C 76.26 94.28 75.11 94.37 73.96 94.46 C 73.34 94.12 72.09 93.43 71.46 93.09 C 72.37 91.97 73.27 90.85 74.17 89.73 Z"/>
  <path fill="#dfb96d" d="M 67.75 100.96 C 67.74 96.62 67.08 92.07 69.08 88.02 C 70.49 89.32 72.31 89.79 74.17 89.73 C 73.27 90.85 72.37 91.97 71.46 93.09 C 72.09 93.43 73.34 94.12 73.96 94.46 C 73.58 94.84 72.80 95.61 72.42 95.99 C 73.12 96.80 73.83 97.61 74.54 98.42 C 74.23 100.92 73.97 103.43 73.73 105.94 C 74.90 104.86 76.06 103.79 77.23 102.73 C 77.03 104.95 76.83 107.17 76.37 109.36 C 74.77 112.15 74.13 115.31 74.13 118.51 C 73.31 118.40 71.68 118.20 70.87 118.09 C 69.65 117.46 68.48 116.74 67.29 116.06 L 67.30 115.97 C 67.81 110.98 67.78 105.97 67.75 100.96 Z"/>
  <path fill="#68583a" d="M 73.96 94.46 C 75.11 94.37 76.26 94.28 77.42 94.19 C 78.43 95.33 79.44 96.47 80.46 97.60 C 80.48 98.17 80.52 99.32 80.55 99.89 C 78.55 99.39 76.54 98.90 74.54 98.42 C 73.83 97.61 73.12 96.80 72.42 95.99 C 72.80 95.61 73.58 94.84 73.96 94.46 Z"/>
  <path fill="#322b1d" d="M 77.42 94.19 C 79.87 94.02 82.34 93.91 84.80 94.16 C 86.22 94.72 87.65 95.25 88.96 96.05 C 87.25 96.31 85.54 96.60 83.83 96.91 C 82.71 97.12 81.58 97.35 80.46 97.60 C 79.44 96.47 78.43 95.33 77.42 94.19 Z" opacity=".96"/>
  <path fill="#dc9e3c" d="M 52.77 105.74 C 52.01 102.61 51.61 99.36 52.46 96.20 C 52.83 96.68 53.57 97.64 53.94 98.12 C 53.78 99.41 53.62 100.71 53.47 102.01 C 54.05 102.28 55.21 102.81 55.79 103.08 C 57.87 104.09 59.73 105.47 61.51 106.93 C 58.64 107.44 55.70 107.59 52.81 107.18 C 51.76 107.02 50.70 106.86 49.65 106.72 C 50.43 106.47 51.99 105.98 52.77 105.74 Z"/>
  <path fill="#0c0a05" d="M 80.46 97.60 C 81.58 97.35 82.71 97.12 83.83 96.91 C 85.22 97.00 86.61 97.19 87.99 97.35 C 86.05 97.63 84.13 98.01 82.25 98.56 C 82.40 101.34 84.66 104.79 82.17 107.09 C 78.75 110.56 76.22 114.84 75.39 119.69 C 73.80 119.39 71.36 120.26 70.87 118.09 C 71.68 118.20 73.31 118.40 74.13 118.51 C 75.34 114.07 77.49 109.97 80.70 106.65 C 82.48 105.08 81.97 102.62 82.02 100.53 C 81.69 101.17 81.03 102.47 80.70 103.12 C 80.65 102.04 80.60 100.97 80.55 99.89 C 80.52 99.32 80.48 98.17 80.46 97.60 Z" opacity=".49"/>
  <path fill="#d1a955" d="M 73.73 105.94 C 73.97 103.43 74.23 100.92 74.54 98.42 C 76.54 98.90 78.55 99.39 80.55 99.89 C 80.60 100.97 80.65 102.04 80.70 103.12 C 80.70 103.45 80.70 104.11 80.70 104.44 C 79.16 106.00 77.68 107.61 76.37 109.36 C 76.83 107.17 77.03 104.95 77.23 102.73 C 76.06 103.79 74.90 104.86 73.73 105.94 Z"/>
  <path fill="#7e572d" d="M 54.45 99.63 C 57.23 101.96 60.18 104.17 63.61 105.46 C 63.36 105.83 62.87 106.57 62.63 106.94 C 63.69 109.23 64.38 111.65 65.24 114.02 C 63.81 113.39 62.60 112.41 61.49 111.34 C 61.80 110.32 62.41 108.27 62.72 107.25 C 59.43 107.87 56.09 107.79 52.81 107.18 C 55.70 107.59 58.64 107.44 61.51 106.93 C 59.73 105.47 57.87 104.09 55.79 103.08 C 55.34 101.93 54.89 100.78 54.45 99.63 Z" opacity=".92"/>
</svg>
